<svg xmlns="http://www.w3.org/2000/svg" xmlns:xlink="http://www.w3.org/1999/xlink" xmlns:lucid="lucid" width="1080" height="608.28"><g transform="translate(-340 -131.7157287525381)" lucid:page-tab-id="Vy-r~5W7-4H-"><path d="M816.45 397.57h100v40h-100z" fill="none"/><use xlink:href="#a" transform="matrix(1,0,0,1,816.4450113868754,397.57359312881204) translate(7.575000000000003 23.6)"/><path d="M628.5 394.98v45.18h-60v-45.18z" fill="none"/><use xlink:href="#b" transform="matrix(6.123233995736766e-17,1,-1,6.123233995736766e-17,628.5,394.98238294663736) translate(15.5 33.6)"/><path d="M451.84 285.86h240v60h-240z" fill="none"/><use xlink:href="#c" transform="matrix(1,0,0,1,451.8392598605865,285.85786437627394) translate(5.85 22.799999999999997)"/><use xlink:href="#d" transform="matrix(1,0,0,1,451.8392598605865,285.85786437627394) translate(18 22.799999999999997)"/><use xlink:href="#e" transform="matrix(1,0,0,1,451.8392598605865,285.85786437627394) translate(66.9 22.799999999999997)"/><use xlink:href="#f" transform="matrix(1,0,0,1,451.8392598605865,285.85786437627394) translate(146.75 22.799999999999997)"/><use xlink:href="#c" transform="matrix(1,0,0,1,451.8392598605865,285.85786437627394) translate(5.85 44.4)"/><use xlink:href="#g" transform="matrix(1,0,0,1,451.8392598605865,285.85786437627394) translate(18 44.4)"/><use xlink:href="#h" transform="matrix(1,0,0,1,451.8392598605865,285.85786437627394) translate(87.85000000000001 44.4)"/><path d="M440 151.72h317v60H440z" fill="none"/><use xlink:href="#i" transform="matrix(1,0,0,1,440.0000000000001,151.7157287525381) translate(124.125 22.799999999999997)"/><use xlink:href="#j" transform="matrix(1,0,0,1,440.0000000000001,151.7157287525381) translate(24.44999999999999 44.4)"/><use xlink:href="#k" transform="matrix(1,0,0,1,440.0000000000001,151.7157287525381) translate(111.3 44.4)"/><use xlink:href="#l" transform="matrix(1,0,0,1,440.0000000000001,151.7157287525381) translate(186.2 44.4)"/><use xlink:href="#m" transform="matrix(1,0,0,1,440.0000000000001,151.7157287525381) translate(201.7 44.4)"/><path d="M366 548.28c-3.3 0-6-2.68-6-6V157.72c0-3.32 2.7-6 6-6h48c3.3 0 6 2.68 6 6v384.56c0 3.32-2.7 6-6 6z" fill-opacity="0"/><path d="M360 524.26v-12.02m0-12.02V488.2m0-12v-12.03m0-12.02v-12.02m0-12V416.1m0-12.02v-12.02m0-12.02v-12m0-12.03v-12m0-12.03v-12m0-12.03v-12.02m0-12.02v-12.02m0-12v-12.03m0-12.02V223.8m0-12v-12.02m0-12.02v-12.02m0-12.02v-6l.82-3.03 2.15-2.17 3.03-.8h6m12 0h12m12 0h6l3.03.8 2.15 2.16.82 3.02v6m0 12.02v12.02m0 12.02v12.02m0 12v12.03m0 12.02v12.02m0 12v12.03m0 12.02v12.02m0 12.02v12m0 12.03v12m0 12.03v12m0 12.03v12.02m0 12.02v12.02m0 12v12.03m0 12.02v12.02m0 12v12.02m0 12.02v12.02m0 12.02v6l-.82 3.03-2.15 2.17-3.03.8h-6m-12 0h-12m-12 0h-6l-3.03-.8-2.15-2.16-.82-3.02v-6" stroke="#4881b3" stroke-width="3" fill="none"/><use xlink:href="#n" transform="matrix(6.123233995736766e-17,-1,1,6.123233995736766e-17,365,543.2842712474619) translate(22.174999999999983 30.025)"/><use xlink:href="#o" transform="matrix(6.123233995736766e-17,-1,1,6.123233995736766e-17,365,543.2842712474619) translate(108.12499999999999 30.025)"/><use xlink:href="#p" transform="matrix(6.123233995736766e-17,-1,1,6.123233995736766e-17,365,543.2842712474619) translate(162.025 30.025)"/><use xlink:href="#q" transform="matrix(6.123233995736766e-17,-1,1,6.123233995736766e-17,365,543.2842712474619) translate(197.025 30.025)"/><use xlink:href="#r" transform="matrix(6.123233995736766e-17,-1,1,6.123233995736766e-17,365,543.2842712474619) translate(280.975 30.025)"/><path d="M366 705.16c-3.3 0-6-2.7-6-6v-136.6c0-3.3 2.7-6 6-6h48c3.3 0 6 2.7 6 6v136.6c0 3.3-2.7 6-6 6z" fill-opacity="0"/><path d="M360 682.1v-11.4m0-11.38v-11.38m0-11.38v-11.4m0-11.37v-11.4m0-11.37v-11.4m0-11.37v-5.7l.82-3.02 2.15-2.15 3.03-.83h6m12 0h12m12 0h6l3.03.82 2.15 2.14.82 3.03v5.7m0 11.37v11.4m0 11.37v11.4m0 11.37v11.4m0 11.37v11.38m0 11.38v11.4m0 11.37v5.7l-.82 3.02-2.15 2.14-3.03.82h-6m-12 0h-12m-12 0h-6l-3.03-.82-2.15-2.15-.82-3.04v-5.7" stroke="#4881b3" stroke-width="3" fill="none"/><use xlink:href="#s" transform="matrix(6.123233995736766e-17,-1,1,6.123233995736766e-17,365,700.1607401394233) translate(25.574999999999996 30.025)"/><path d="M440 681c0-3.3 2.7-6 6-6h921c3.3 0 6-2.7 6-6v-3c0-3.3 1.8-4 4-1.54l19 21.08c2.2 2.46 2.2 6.46 0 8.92l-19 21.08c-2.2 2.46-4 1.77-4-1.54v-3c0-3.3-2.7-6-6-6H446c-3.3 0-6-2.7-6-6z" stroke="#7ab648" stroke-width="3" fill="#a3d977"/><use xlink:href="#t" transform="matrix(1,0,0,1,445,665) translate(376.725 26.9)"/><use xlink:href="#u" transform="matrix(1,0,0,1,445,665) translate(433.625 26.9)"/><use xlink:href="#v" transform="matrix(1,0,0,1,445,665) translate(475.52500000000003 26.9)"/><path d="M438.5 220.75c.4 0 .75.34.75.75v497c0 .4-.34.75-.75.75-.4 0-.75-.34-.75-.75v-497c0-.4.34-.75.75-.75z" stroke="#4881b3" stroke-width="1.5" fill="none"/><path d="M758.5 220.75c.4 0 .75.34.75.75v309.14c0 .4-.34.75-.75.75-.4 0-.75-.35-.75-.76V221.5c0-.4.34-.75.75-.75zM1078.5 444.1c.4 0 .75.33.75.74V653.4c0 .4-.34.74-.75.74-.4 0-.75-.34-.75-.75V444.83c0-.4.34-.75.75-.75z" stroke="#99d2f2" stroke-width="1.5" fill="none"/><path d="M760 466.86c0-3.32 2.7-6 6-6h281c3.3 0 6-2.7 6-6v-3c0-3.32 1.8-4 4-1.54l19 21.08c2.2 2.46 2.2 6.45 0 8.92l-19 21.08c-2.2 2.46-4 1.77-4-1.54v-3c0-3.32-2.7-6-6-6H766c-3.3 0-6-2.7-6-6z" stroke="#4881b3" stroke-width="3" fill="#f5fbff"/><use xlink:href="#w" transform="matrix(1,0,0,1,765,450.85786437627394) translate(96.55 26.9)"/><use xlink:href="#x" transform="matrix(1,0,0,1,765,450.85786437627394) translate(137.5 26.9)"/><path d="M440 572.72c0-3.32 2.7-6 6-6h601c3.3 0 6-2.7 6-6v-3c0-3.32 1.8-4 4-1.54l19 21.08c2.2 2.46 2.2 6.45 0 8.92l-19 21.08c-2.2 2.46-4 1.77-4-1.54v-3c0-3.32-2.7-6-6-6H446c-3.3 0-6-2.7-6-6z" stroke="#4881b3" stroke-width="3" fill="#f5fbff"/><use xlink:href="#y" transform="matrix(1,0,0,1,445.0000000000001,556.7157287525479) translate(262.575 26.9)"/><use xlink:href="#z" transform="matrix(1,0,0,1,445.0000000000001,556.7157287525479) translate(311.47499999999997 26.9)"/><path d="M440 358.54c0-3.32 2.7-6 6-6h281c3.3 0 6-2.7 6-6v-3c0-3.32 1.8-4 4-1.54l19 21.08c2.2 2.46 2.2 6.46 0 8.92l-19 21.08c-2.2 2.46-4 1.77-4-1.54v-3c0-3.32-2.7-6-6-6H446c-3.3 0-6-2.7-6-6z" stroke="#4881b3" stroke-width="3" fill="#f5fbff"/><use xlink:href="#A" transform="matrix(1,0,0,1,445.0000000000001,342.53835902209653) translate(88.6 26.9)"/><use xlink:href="#B" transform="matrix(1,0,0,1,445.0000000000001,342.53835902209653) translate(129.55 26.9)"/><g fill="none"><path d="M774.02 431.72c7.8 7.8 20.47 7.8 28.28 0 7.8-7.8 7.8-20.48 0-28.3-7.8-7.8-20.47-7.8-28.28 0" stroke="#4881b3" stroke-width="6"/><path d="M775.72 399.47l-1.7 3.96 4.24-1.4" stroke="#4881b3" stroke-width="6"/><path d="M774.02 431.72c7.8 7.8 20.47 7.8 28.28 0 7.8-7.8 7.8-20.48 0-28.3-7.8-7.8-20.47-7.8-28.28 0z"/></g><path d="M828.16 224.08h100v40h-100z" fill="none"/><g><use xlink:href="#C" transform="matrix(1,0,0,1,828.1607401394135,224.08037006970673) translate(6.524999999999999 14.4)"/><use xlink:href="#D" transform="matrix(1,0,0,1,828.1607401394135,224.08037006970673) translate(7.575000000000003 36)"/></g><g fill="none"><path d="M774.02 254.14c7.8 7.8 20.47 7.8 28.28 0 7.8-7.8 7.8-20.47 0-28.28-7.8-7.8-20.47-7.8-28.28 0" stroke="#4881b3" stroke-width="6"/><path d="M775.72 221.9l-1.7 3.96 4.24-1.42" stroke="#4881b3" stroke-width="6"/><path d="M774.02 254.14c7.8 7.8 20.47 7.8 28.28 0 7.8-7.8 7.8-20.47 0-28.28-7.8-7.8-20.47-7.8-28.28 0z"/></g><path d="M507.42 220h185.16v48.16H507.42z" fill="none"/><g><use xlink:href="#E" transform="matrix(1,0,0,1,507.41962993029335,220) translate(0 17.299999999999997)"/><use xlink:href="#F" transform="matrix(1,0,0,1,507.41962993029335,220) translate(79.85000000000001 17.299999999999997)"/><use xlink:href="#G" transform="matrix(1,0,0,1,507.41962993029335,220) translate(116.75000000000001 17.299999999999997)"/><use xlink:href="#H" transform="matrix(1,0,0,1,507.41962993029335,220) translate(0 38.9)"/></g><g fill="none"><path d="M452.76 252.76c7.05 8.5 19.66 9.7 28.16 2.64 8.5-7.05 9.7-19.65 2.64-28.16-7.05-8.5-19.65-9.7-28.16-2.64" stroke="#4881b3" stroke-width="6"/><path d="M457.46 220.82l-2.06 3.78 4.36-1" stroke="#4881b3" stroke-width="6"/><path d="M452.76 252.76c7.05 8.5 19.66 9.7 28.16 2.64 8.5-7.05 9.7-19.65 2.64-28.16-7.05-8.5-19.65-9.7-28.16-2.64z"/></g><path d="M760 151.72h317v60H760z" fill="none"/><g><use xlink:href="#I" transform="matrix(1,0,0,1,760,151.7157287525381) translate(127.525 22.799999999999997)"/><use xlink:href="#J" transform="matrix(1,0,0,1,760,151.7157287525381) translate(113.07499999999999 44.4)"/></g><path d="M1077 151.72h317v60h-317z" fill="none"/><g><use xlink:href="#K" transform="matrix(1,0,0,1,1077,151.7157287525381) translate(110.125 22.799999999999997)"/><use xlink:href="#L" transform="matrix(1,0,0,1,1077,151.7157287525381) translate(113.625 44.4)"/></g><path d="M1080 621c0-3.3 2.7-6 6-6h281c3.3 0 6-2.7 6-6v-3c0-3.3 1.8-4 4-1.54l19 21.08c2.2 2.46 2.2 6.46 0 8.92l-19 21.08c-2.2 2.46-4 1.77-4-1.54v-3c0-3.3-2.7-6-6-6h-281c-3.3 0-6-2.7-6-6z" stroke="#4881b3" stroke-width="3" fill="#f5fbff"/><g><use xlink:href="#M" transform="matrix(1,0,0,1,1085,605) translate(76.07499999999999 26.9)"/><use xlink:href="#N" transform="matrix(1,0,0,1,1085,605) translate(137.975 26.9)"/><use xlink:href="#O" transform="matrix(1,0,0,1,1085,605) translate(157.975 26.9)"/></g><path d="M1136.57 508.28h100v40h-100z" fill="none"/><g><use xlink:href="#a" transform="matrix(1,0,0,1,1136.5685424949042,508.2842712474619) translate(7.575000000000003 23.6)"/></g><g fill="none"><path d="M1094.14 542.43c7.8 7.8 20.48 7.8 28.3 0 7.8-7.8 7.8-20.48 0-28.3-7.82-7.8-20.5-7.8-28.3 0" stroke="#4881b3" stroke-width="6"/><path d="M1095.84 510.18l-1.7 3.96 4.24-1.4" stroke="#4881b3" stroke-width="6"/><path d="M1094.14 542.43c7.8 7.8 20.48 7.8 28.3 0 7.8-7.8 7.8-20.48 0-28.3-7.82-7.8-20.5-7.8-28.3 0z"/></g><path d="M780.43 285.86h240v60h-240z" fill="none"/><g><use xlink:href="#c" transform="matrix(1,0,0,1,780.4314575050958,285.85786437627394) translate(5.85 14.4)"/><use xlink:href="#P" transform="matrix(1,0,0,1,780.4314575050958,285.85786437627394) translate(18 14.4)"/><use xlink:href="#Q" transform="matrix(1,0,0,1,780.4314575050958,285.85786437627394) translate(68.85 14.4)"/><use xlink:href="#R" transform="matrix(1,0,0,1,780.4314575050958,285.85786437627394) translate(88.85 14.4)"/><use xlink:href="#S" transform="matrix(1,0,0,1,780.4314575050958,285.85786437627394) translate(130.75 14.4)"/><use xlink:href="#T" transform="matrix(1,0,0,1,780.4314575050958,285.85786437627394) translate(18 36)"/><use xlink:href="#U" transform="matrix(1,0,0,1,780.4314575050958,285.85786437627394) translate(147.8 36)"/><use xlink:href="#V" transform="matrix(1,0,0,1,780.4314575050958,285.85786437627394) translate(18 57.6)"/><use xlink:href="#W" transform="matrix(1,0,0,1,780.4314575050958,285.85786437627394) translate(95.9 57.6)"/><use xlink:href="#X" transform="matrix(1,0,0,1,780.4314575050958,285.85786437627394) translate(146.75 57.6)"/></g><path d="M1180 571.72h180v40h-180z" fill="none"/><g><use xlink:href="#d" transform="matrix(1,0,0,1,1180,571.7157287525479) translate(81.15 23.6)"/><use xlink:href="#h" transform="matrix(1,0,0,1,1180,571.7157287525479) translate(130.05 23.6)"/></g><defs><path fill="#1d262b" d="M114-163C36-179 61-72 57 0H25l-1-190h30c1 12-1 29 2 39 6-27 23-49 58-41v29" id="Y"/><path fill="#1d262b" d="M100-194c63 0 86 42 84 106H49c0 40 14 67 53 68 26 1 43-12 49-29l28 8c-11 28-37 45-77 45C44 4 14-33 15-96c1-61 26-98 85-98zm52 81c6-60-76-77-97-28-3 7-6 17-6 28h103" id="Z"/><path fill="#1d262b" d="M101-234c-31-9-42 10-38 44h38v23H63V0H32v-167H5v-23h27c-7-52 17-82 69-68v24" id="aa"/><path fill="#1d262b" d="M24-231v-30h32v30H24zM24 0v-190h32V0H24" id="ab"/><path fill="#1d262b" d="M117-194c89-4 53 116 60 194h-32v-121c0-31-8-49-39-48C34-167 62-67 57 0H25l-1-190h30c1 10-1 24 2 32 11-22 29-35 61-36" id="ac"/><path fill="#1d262b" d="M210-169c-67 3-38 105-44 169h-31v-121c0-29-5-50-35-48C34-165 62-65 56 0H25l-1-190h30c1 10-1 24 2 32 10-44 99-50 107 0 11-21 27-35 58-36 85-2 47 119 55 194h-31v-121c0-29-5-49-35-48" id="ad"/><path fill="#1d262b" d="M59-47c-2 24 18 29 38 22v24C64 9 27 4 27-40v-127H5v-23h24l9-43h21v43h35v23H59v120" id="ae"/><g id="a"><use transform="matrix(0.05,0,0,0.05,0,0)" xlink:href="#Y"/><use transform="matrix(0.05,0,0,0.05,5.95,0)" xlink:href="#Z"/><use transform="matrix(0.05,0,0,0.05,15.949999999999998,0)" xlink:href="#aa"/><use transform="matrix(0.05,0,0,0.05,20.95,0)" xlink:href="#ab"/><use transform="matrix(0.05,0,0,0.05,24.9,0)" xlink:href="#ac"/><use transform="matrix(0.05,0,0,0.05,34.9,0)" xlink:href="#Z"/><use transform="matrix(0.05,0,0,0.05,44.9,0)" xlink:href="#ad"/><use transform="matrix(0.05,0,0,0.05,59.85,0)" xlink:href="#Z"/><use transform="matrix(0.05,0,0,0.05,69.85,0)" xlink:href="#ac"/><use transform="matrix(0.05,0,0,0.05,79.85,0)" xlink:href="#ae"/></g><path fill="#1d262b" d="M33 0v-38h34V0H33" id="af"/><g id="b"><use transform="matrix(0.05,0,0,0.05,0,0)" xlink:href="#af"/><use transform="matrix(0.05,0,0,0.05,5,0)" xlink:href="#af"/><use transform="matrix(0.05,0,0,0.05,10,0)" xlink:href="#af"/></g><path fill="#0c7cba" d="M65-168c29 0 50 18 50 48S94-70 65-70c-30 0-48-21-48-50s19-48 48-48" id="ag"/><use transform="matrix(0.05,0,0,0.05,0,0)" xlink:href="#ag" id="c"/><path fill="#0c7cba" d="M133-28C103 26-5 8 13-77c13-62 24-115 90-117 29-1 46 15 56 35l19-102h32L160 0h-30zM45-64c-2 27 10 43 35 43 54-1 69-50 69-103 0-29-15-46-42-46-53-1-58 58-62 106" id="ah"/><path fill="#0c7cba" d="M50-231l6-30h32l-6 30H50zM6 0l37-190h31L37 0H6" id="ai"/><path fill="#0c7cba" d="M66-151c12-25 30-51 66-40l-6 26C45-176 58-65 38 0H6l36-190h30" id="aj"/><path fill="#0c7cba" d="M111-194c62-3 86 47 72 106H45c-7 38 6 69 45 68 27-1 43-14 53-32l24 11C152-15 129 4 87 4 38 3 12-23 12-71c0-70 32-119 99-123zm44 81c14-66-71-72-95-28-4 8-8 17-11 28h106" id="ak"/><path fill="#0c7cba" d="M44-68c0 29 11 47 38 47 30 0 42-19 51-41l28 9C148-21 126 4 82 4 31 4 10-29 12-85c3-77 74-140 146-93 12 8 15 23 18 40l-31 5c-1-22-13-36-36-36-52 0-65 49-65 101" id="al"/><path fill="#0c7cba" d="M51-54c-9 22 5 41 31 30L79-1C43 14 10-4 19-52l22-115H19l5-23h22l19-43h21l-9 43h35l-4 23H73" id="am"/><g id="d"><use transform="matrix(0.05,0,0,0.05,0,0)" xlink:href="#ah"/><use transform="matrix(0.05,0,0,0.05,10,0)" xlink:href="#ai"/><use transform="matrix(0.05,0,0,0.05,13.949999999999998,0)" xlink:href="#aj"/><use transform="matrix(0.05,0,0,0.05,19.9,0)" xlink:href="#ak"/><use transform="matrix(0.05,0,0,0.05,29.899999999999995,0)" xlink:href="#al"/><use transform="matrix(0.05,0,0,0.05,38.9,0)" xlink:href="#am"/></g><path fill="#0c7cba" d="M62-99C39-31 123 0 170-40s38-139 58-208h34C234-144 253 4 115 4 49 4 18-43 31-112l26-136h34" id="an"/><path fill="#0c7cba" d="M222 0l43-216c-8 16-17 34-26 49L143 0h-22L81-216 41 0H11l48-248h42l38 208 116-208h45L252 0h-30" id="ao"/><path fill="#0c7cba" d="M11 0l48-248h34L50-27h125l-5 27H11" id="ap"/><path fill="#0c7cba" d="M-20 4l123-265h28L8 4h-28" id="aq"/><path fill="#0c7cba" d="M176 0l-54-107L30 0H-7l115-131-60-117h35l48 97 83-97h37L146-129 211 0h-35" id="ar"/><path fill="#0c7cba" d="M14 0l48-248h34L48 0H14" id="as"/><g id="e"><use transform="matrix(0.05,0,0,0.05,0,0)" xlink:href="#an"/><use transform="matrix(0.05,0,0,0.05,12.950000000000001,0)" xlink:href="#ao"/><use transform="matrix(0.05,0,0,0.05,27.900000000000002,0)" xlink:href="#ap"/><use transform="matrix(0.05,0,0,0.05,37.900000000000006,0)" xlink:href="#aq"/><use transform="matrix(0.05,0,0,0.05,42.900000000000006,0)" xlink:href="#ar"/><use transform="matrix(0.05,0,0,0.05,54.900000000000006,0)" xlink:href="#ao"/><use transform="matrix(0.05,0,0,0.05,69.85000000000001,0)" xlink:href="#as"/></g><path fill="#0c7cba" d="M67-162c32-53 139-36 121 50C175-51 163 2 97 4 68 4 52-11 42-31 38 6 28 39 22 75H-9l50-265h29c-1 10 0 20-3 28zm89 36c0-26-10-43-35-43-54 0-67 50-69 103-1 29 14 45 42 46 53 0 62-58 62-106" id="at"/><path fill="#0c7cba" d="M165-48c-4 18 1 34 23 27l-3 20c-29 8-62 0-52-35h-2C116-14 99 4 63 4 30 4 8-16 8-49c0-68 71-67 138-67 10-26 0-56-31-54-26 1-42 9-47 31l-32-5c8-67 160-71 144 15-5 28-9 54-15 81zM42-50c3 52 80 24 89-6 7-12 7-24 11-38-47 1-103-4-100 44" id="au"/><path fill="#0c7cba" d="M55-144c13 50 104 24 104 88C159 21 15 23 1-39l26-10c6 40 102 42 102-4-13-50-104-23-104-87 0-71 143-71 148-8l-29 4c-5-35-85-37-89 0" id="av"/><path fill="#0c7cba" d="M67-158c22-48 132-52 116 29L158 0h-32l25-140c3-38-53-32-70-12C52-117 51-52 38 0H6l36-190h30" id="aw"/><path fill="#0c7cba" d="M103-194c29 0 47 14 56 36 2-11 5-23 8-32h30L160-5C157 61 82 97 21 62 9 55 4 45 1 30l28-7c7 42 83 31 92-3 4-16 9-38 13-55-13 20-29 36-62 36-40 0-60-25-60-64 0-71 23-131 91-131zm4 24c-53 0-58 54-61 104-2 27 10 44 36 44 49 0 65-50 67-102 1-29-15-46-42-46" id="ax"/><g id="f"><use transform="matrix(0.05,0,0,0.05,0,0)" xlink:href="#at"/><use transform="matrix(0.05,0,0,0.05,10,0)" xlink:href="#au"/><use transform="matrix(0.05,0,0,0.05,20,0)" xlink:href="#aj"/><use transform="matrix(0.05,0,0,0.05,25.950000000000003,0)" xlink:href="#av"/><use transform="matrix(0.05,0,0,0.05,34.95,0)" xlink:href="#ai"/><use transform="matrix(0.05,0,0,0.05,38.900000000000006,0)" xlink:href="#aw"/><use transform="matrix(0.05,0,0,0.05,48.900000000000006,0)" xlink:href="#ax"/></g><path fill="#0c7cba" d="M248-111c6-24 9-61-24-58-72 9-57 108-77 169h-31l26-142c3-37-50-30-64-10C52-115 50-51 37 0H6l36-190h30c-1 10-6 24-4 32 13-43 101-52 105 5 13-22 29-41 61-41 90 0 28 129 23 194h-31" id="ay"/><g id="g"><use transform="matrix(0.05,0,0,0.05,0,0)" xlink:href="#ah"/><use transform="matrix(0.05,0,0,0.05,10,0)" xlink:href="#ai"/><use transform="matrix(0.05,0,0,0.05,13.949999999999998,0)" xlink:href="#au"/><use transform="matrix(0.05,0,0,0.05,23.95,0)" xlink:href="#ax"/><use transform="matrix(0.05,0,0,0.05,33.95,0)" xlink:href="#aj"/><use transform="matrix(0.05,0,0,0.05,39.900000000000006,0)" xlink:href="#au"/><use transform="matrix(0.05,0,0,0.05,49.900000000000006,0)" xlink:href="#ay"/></g><path fill="#0c7cba" d="M124 0L87-78 21 0h-35l86-98-46-92h33l34 74 61-74h37l-83 92 50 98h-34" id="az"/><path fill="#0c7cba" d="M30-147c31-64 166-65 159 27C183-49 158 1 86 4 9 8 1-88 30-147zM88-20c53 0 68-48 68-100 0-31-11-51-44-50-52 1-68 46-68 97 0 32 13 53 44 53" id="aA"/><g id="h"><use transform="matrix(0.05,0,0,0.05,0,0)" xlink:href="#ak"/><use transform="matrix(0.05,0,0,0.05,10,0)" xlink:href="#az"/><use transform="matrix(0.05,0,0,0.05,19,0)" xlink:href="#at"/><use transform="matrix(0.05,0,0,0.05,29,0)" xlink:href="#aA"/><use transform="matrix(0.05,0,0,0.05,39,0)" xlink:href="#aj"/><use transform="matrix(0.05,0,0,0.05,44.95,0)" xlink:href="#am"/></g><path fill="#1d262b" d="M24-248c120-7 223 5 221 122C244-46 201 0 124 0H24v-248zM76-40c74 7 117-18 117-86 0-67-45-88-117-82v168" id="aB"/><path fill="#1d262b" d="M135-150c-39-12-60 13-60 57V0H25l-1-190h47c2 13-1 29 3 40 6-28 27-53 61-41v41" id="aC"/><path fill="#1d262b" d="M133-34C117-15 103 5 69 4 32 3 11-16 11-54c-1-60 55-63 116-61 1-26-3-47-28-47-18 1-26 9-28 27l-52-2c7-38 36-58 82-57s74 22 75 68l1 82c-1 14 12 18 25 15v27c-30 8-71 5-69-32zm-48 3c29 0 43-24 42-57-32 0-66-3-65 30 0 17 8 27 23 27" id="aD"/><path fill="#1d262b" d="M121-226c-27-7-43 5-38 36h38v33H83V0H34v-157H6v-33h28c-9-59 32-81 87-68v32" id="aE"/><path fill="#1d262b" d="M115-3C79 11 28 4 28-45v-112H4v-33h27l15-45h31v45h36v33H77v99c-1 23 16 31 38 25v30" id="aF"/><path fill="#1d262b" d="M25-224v-37h50v37H25zM25 0v-190h50V0H25" id="aG"/><path fill="#1d262b" d="M135-194c87-1 58 113 63 194h-50c-7-57 23-157-34-157-59 0-34 97-39 157H25l-1-190h47c2 12-1 28 3 38 12-26 28-41 61-42" id="aH"/><path fill="#1d262b" d="M195-6C206 82 75 100 31 46c-4-6-6-13-8-21l49-6c3 16 16 24 34 25 40 0 42-37 40-79-11 22-30 35-61 35-53 0-70-43-70-97 0-56 18-96 73-97 30 0 46 14 59 34l2-30h47zm-90-29c32 0 41-27 41-63 0-35-9-62-40-62-32 0-39 29-40 63 0 36 9 62 39 62" id="aI"/><g id="i"><use transform="matrix(0.05,0,0,0.05,0,0)" xlink:href="#aB"/><use transform="matrix(0.05,0,0,0.05,12.950000000000001,0)" xlink:href="#aC"/><use transform="matrix(0.05,0,0,0.05,19.950000000000003,0)" xlink:href="#aD"/><use transform="matrix(0.05,0,0,0.05,29.950000000000003,0)" xlink:href="#aE"/><use transform="matrix(0.05,0,0,0.05,35.900000000000006,0)" xlink:href="#aF"/><use transform="matrix(0.05,0,0,0.05,41.85000000000001,0)" xlink:href="#aG"/><use transform="matrix(0.05,0,0,0.05,46.85000000000001,0)" xlink:href="#aH"/><use transform="matrix(0.05,0,0,0.05,57.80000000000001,0)" xlink:href="#aI"/></g><path fill="#1d262b" d="M30 0v-248h187v28H63v79h144v27H63v87h162V0H30" id="aJ"/><path fill="#1d262b" d="M115-194c55 1 70 41 70 98S169 2 115 4C84 4 66-9 55-30l1 105H24l-1-265h31l2 30c10-21 28-34 59-34zm-8 174c40 0 45-34 45-75s-6-73-45-74c-42 0-51 32-51 76 0 43 10 73 51 73" id="aK"/><path fill="#1d262b" d="M135-143c-3-34-86-38-87 0 15 53 115 12 119 90S17 21 10-45l28-5c4 36 97 45 98 0-10-56-113-15-118-90-4-57 82-63 122-42 12 7 21 19 24 35" id="aL"/><g id="j"><use transform="matrix(0.05,0,0,0.05,0,0)" xlink:href="#aJ"/><use transform="matrix(0.05,0,0,0.05,12,0)" xlink:href="#ac"/><use transform="matrix(0.05,0,0,0.05,22,0)" xlink:href="#ae"/><use transform="matrix(0.05,0,0,0.05,27,0)" xlink:href="#Z"/><use transform="matrix(0.05,0,0,0.05,37,0)" xlink:href="#Y"/><use transform="matrix(0.05,0,0,0.05,42.95,0)" xlink:href="#aK"/><use transform="matrix(0.05,0,0,0.05,52.95,0)" xlink:href="#Y"/><use transform="matrix(0.05,0,0,0.05,58.900000000000006,0)" xlink:href="#ab"/><use transform="matrix(0.05,0,0,0.05,62.85,0)" xlink:href="#aL"/><use transform="matrix(0.05,0,0,0.05,71.85000000000001,0)" xlink:href="#Z"/></g><path fill="#1d262b" d="M205 0l-28-72H64L36 0H1l101-248h38L239 0h-34zm-38-99l-47-123c-12 45-31 82-46 123h93" id="aM"/><path fill="#1d262b" d="M96-169c-40 0-48 33-48 73s9 75 48 75c24 0 41-14 43-38l32 2c-6 37-31 61-74 61-59 0-76-41-82-99-10-93 101-131 147-64 4 7 5 14 7 22l-32 3c-4-21-16-35-41-35" id="aN"/><path fill="#1d262b" d="M106-169C34-169 62-67 57 0H25v-261h32l-1 103c12-21 28-36 61-36 89 0 53 116 60 194h-32v-121c2-32-8-49-39-48" id="aO"/><g id="k"><use transform="matrix(0.05,0,0,0.05,0,0)" xlink:href="#aM"/><use transform="matrix(0.05,0,0,0.05,12,0)" xlink:href="#Y"/><use transform="matrix(0.05,0,0,0.05,17.95,0)" xlink:href="#aN"/><use transform="matrix(0.05,0,0,0.05,26.950000000000003,0)" xlink:href="#aO"/><use transform="matrix(0.05,0,0,0.05,36.95,0)" xlink:href="#ab"/><use transform="matrix(0.05,0,0,0.05,40.900000000000006,0)" xlink:href="#ae"/><use transform="matrix(0.05,0,0,0.05,45.900000000000006,0)" xlink:href="#Z"/><use transform="matrix(0.05,0,0,0.05,55.900000000000006,0)" xlink:href="#aN"/><use transform="matrix(0.05,0,0,0.05,64.9,0)" xlink:href="#ae"/></g><path fill="#1d262b" d="M118-107v75H92v-75H18v-26h74v-75h26v75h74v26h-74" id="aP"/><use transform="matrix(0.05,0,0,0.05,0,0)" xlink:href="#aP" id="l"/><path fill="#1d262b" d="M240 0l2-218c-23 76-54 145-80 218h-23L58-218 59 0H30v-248h44l77 211c21-75 51-140 76-211h43V0h-30" id="aQ"/><path fill="#1d262b" d="M141-36C126-15 110 5 73 4 37 3 15-17 15-53c-1-64 63-63 125-63 3-35-9-54-41-54-24 1-41 7-42 31l-33-3c5-37 33-52 76-52 45 0 72 20 72 64v82c-1 20 7 32 28 27v20c-31 9-61-2-59-35zM48-53c0 20 12 33 32 33 41-3 63-29 60-74-43 2-92-5-92 41" id="aR"/><path fill="#1d262b" d="M100-194c62-1 85 37 85 99 1 63-27 99-86 99S16-35 15-95c0-66 28-99 85-99zM99-20c44 1 53-31 53-75 0-43-8-75-51-75s-53 32-53 75 10 74 51 75" id="aS"/><g id="m"><use transform="matrix(0.05,0,0,0.05,0,0)" xlink:href="#aQ"/><use transform="matrix(0.05,0,0,0.05,14.950000000000001,0)" xlink:href="#Z"/><use transform="matrix(0.05,0,0,0.05,24.950000000000003,0)" xlink:href="#ae"/><use transform="matrix(0.05,0,0,0.05,29.950000000000003,0)" xlink:href="#aR"/><use transform="matrix(0.05,0,0,0.05,39.95,0)" xlink:href="#ac"/><use transform="matrix(0.05,0,0,0.05,49.95,0)" xlink:href="#aS"/><use transform="matrix(0.05,0,0,0.05,59.95,0)" xlink:href="#Y"/><use transform="matrix(0.05,0,0,0.05,65.9,0)" xlink:href="#ad"/><use transform="matrix(0.05,0,0,0.05,80.85000000000001,0)" xlink:href="#aR"/></g><path fill="#1d262b" d="M33 0v-248h34V0H33" id="aT"/><path fill="#1d262b" d="M177-190C167-65 218 103 67 71c-23-6-38-20-44-43l32-5c15 47 100 32 89-28v-30C133-14 115 1 83 1 29 1 15-40 15-95c0-56 16-97 71-98 29-1 48 16 59 35 1-10 0-23 2-32h30zM94-22c36 0 50-32 50-73 0-42-14-75-50-75-39 0-46 34-46 75s6 73 46 73" id="aU"/><path fill="#1d262b" d="M85-194c31 0 48 13 60 33l-1-100h32l1 261h-30c-2-10 0-23-3-31C134-8 116 4 85 4 32 4 16-35 15-94c0-66 23-100 70-100zm9 24c-40 0-46 34-46 75 0 40 6 74 45 74 42 0 51-32 51-76 0-42-9-74-50-73" id="aV"/><g id="n"><use transform="matrix(0.05,0,0,0.05,0,0)" xlink:href="#aT"/><use transform="matrix(0.05,0,0,0.05,5,0)" xlink:href="#ac"/><use transform="matrix(0.05,0,0,0.05,15,0)" xlink:href="#ae"/><use transform="matrix(0.05,0,0,0.05,20,0)" xlink:href="#Z"/><use transform="matrix(0.05,0,0,0.05,30,0)" xlink:href="#aU"/><use transform="matrix(0.05,0,0,0.05,40,0)" xlink:href="#Y"/><use transform="matrix(0.05,0,0,0.05,45.95,0)" xlink:href="#aR"/><use transform="matrix(0.05,0,0,0.05,55.95,0)" xlink:href="#ae"/><use transform="matrix(0.05,0,0,0.05,60.95,0)" xlink:href="#Z"/><use transform="matrix(0.05,0,0,0.05,70.95,0)" xlink:href="#aV"/></g><path fill="#1d262b" d="M24 0v-261h32V0H24" id="aW"/><g id="o"><use transform="matrix(0.05,0,0,0.05,0,0)" xlink:href="#ad"/><use transform="matrix(0.05,0,0,0.05,14.950000000000001,0)" xlink:href="#aS"/><use transform="matrix(0.05,0,0,0.05,24.950000000000003,0)" xlink:href="#aV"/><use transform="matrix(0.05,0,0,0.05,34.95,0)" xlink:href="#Z"/><use transform="matrix(0.05,0,0,0.05,44.95,0)" xlink:href="#aW"/></g><g id="p"><use transform="matrix(0.05,0,0,0.05,0,0)" xlink:href="#aR"/><use transform="matrix(0.05,0,0,0.05,10,0)" xlink:href="#ac"/><use transform="matrix(0.05,0,0,0.05,20,0)" xlink:href="#aV"/></g><path fill="#1d262b" d="M84 4C-5 8 30-112 23-190h32v120c0 31 7 50 39 49 72-2 45-101 50-169h31l1 190h-30c-1-10 1-25-2-33-11 22-28 36-60 37" id="aX"/><g id="q"><use transform="matrix(0.05,0,0,0.05,0,0)" xlink:href="#aV"/><use transform="matrix(0.05,0,0,0.05,10,0)" xlink:href="#aS"/><use transform="matrix(0.05,0,0,0.05,20,0)" xlink:href="#aN"/><use transform="matrix(0.05,0,0,0.05,29,0)" xlink:href="#aX"/><use transform="matrix(0.05,0,0,0.05,39,0)" xlink:href="#ad"/><use transform="matrix(0.05,0,0,0.05,53.95,0)" xlink:href="#Z"/><use transform="matrix(0.05,0,0,0.05,63.95,0)" xlink:href="#ac"/><use transform="matrix(0.05,0,0,0.05,73.95,0)" xlink:href="#ae"/></g><g id="r"><use transform="matrix(0.05,0,0,0.05,0,0)" xlink:href="#ab"/><use transform="matrix(0.05,0,0,0.05,3.95,0)" xlink:href="#ac"/><use transform="matrix(0.05,0,0,0.05,13.949999999999998,0)" xlink:href="#ae"/><use transform="matrix(0.05,0,0,0.05,18.95,0)" xlink:href="#Z"/><use transform="matrix(0.05,0,0,0.05,28.950000000000003,0)" xlink:href="#aU"/><use transform="matrix(0.05,0,0,0.05,38.95,0)" xlink:href="#Y"/><use transform="matrix(0.05,0,0,0.05,44.900000000000006,0)" xlink:href="#aR"/><use transform="matrix(0.05,0,0,0.05,54.900000000000006,0)" xlink:href="#ae"/><use transform="matrix(0.05,0,0,0.05,59.900000000000006,0)" xlink:href="#ab"/><use transform="matrix(0.05,0,0,0.05,63.85,0)" xlink:href="#aS"/><use transform="matrix(0.05,0,0,0.05,73.85000000000001,0)" xlink:href="#ac"/></g><path fill="#1d262b" d="M30-248c87 1 191-15 191 75 0 78-77 80-158 76V0H30v-248zm33 125c57 0 124 11 124-50 0-59-68-47-124-48v98" id="aY"/><path fill="#1d262b" d="M115-194c53 0 69 39 70 98 0 66-23 100-70 100C84 3 66-7 56-30L54 0H23l1-261h32v101c10-23 28-34 59-34zm-8 174c40 0 45-34 45-75 0-40-5-75-45-74-42 0-51 32-51 76 0 43 10 73 51 73" id="aZ"/><g id="s"><use transform="matrix(0.05,0,0,0.05,0,0)" xlink:href="#aY"/><use transform="matrix(0.05,0,0,0.05,12,0)" xlink:href="#aX"/><use transform="matrix(0.05,0,0,0.05,22,0)" xlink:href="#aZ"/><use transform="matrix(0.05,0,0,0.05,32,0)" xlink:href="#aW"/><use transform="matrix(0.05,0,0,0.05,35.95,0)" xlink:href="#ab"/><use transform="matrix(0.05,0,0,0.05,39.900000000000006,0)" xlink:href="#aN"/><use transform="matrix(0.05,0,0,0.05,48.900000000000006,0)" xlink:href="#aR"/><use transform="matrix(0.05,0,0,0.05,58.900000000000006,0)" xlink:href="#ae"/><use transform="matrix(0.05,0,0,0.05,63.900000000000006,0)" xlink:href="#ab"/><use transform="matrix(0.05,0,0,0.05,67.85000000000001,0)" xlink:href="#aS"/><use transform="matrix(0.05,0,0,0.05,77.85000000000001,0)" xlink:href="#ac"/></g><path fill="#1d262b" d="M144-137c-1-29-70-35-71-2 16 41 103 10 103 80C176 9 79 16 32-9 18-17 9-31 4-48l44-6c3 32 80 36 82 1-15-42-103-11-103-82 0-77 157-79 161-8" id="ba"/><path fill="#1d262b" d="M50-224l7-37h49l-7 37H50zM6 0l37-190h49L55 0H6" id="bb"/><path fill="#1d262b" d="M151-194c95 0 34 128 28 194h-49l25-134c0-29-45-25-59-9C67-111 69-48 56 0H6l36-190h47l-4 32c15-20 33-36 66-36" id="bc"/><path fill="#1d262b" d="M45-171c29-32 103-29 114 14 2-11 5-23 8-33h47L176-2c-3 70-92 96-155 64C9 56 1 42-1 25l50-5c2 28 48 27 63 11 13-13 20-45 21-66-13 20-30 35-62 36-87 3-60-134-26-172zM94-35c41-3 55-43 55-86 0-24-12-39-35-39-43 0-51 48-51 90 0 22 9 37 31 35" id="bd"/><path fill="#1d262b" d="M6 0l51-261h49L55 0H6" id="be"/><path fill="#1d262b" d="M114-194c63-2 87 48 72 110H63c-3 28 1 55 31 54 21-1 32-13 37-29l44 13C160-14 137 4 91 4 41 4 11-22 11-73c0-71 33-119 103-121zm30 77c14-47-50-61-67-22-3 6-6 13-8 22h75" id="bf"/><g id="t"><use transform="matrix(0.05,0,0,0.05,0,0)" xlink:href="#ba"/><use transform="matrix(0.05,0,0,0.05,10,0)" xlink:href="#bb"/><use transform="matrix(0.05,0,0,0.05,15,0)" xlink:href="#bc"/><use transform="matrix(0.05,0,0,0.05,25.950000000000003,0)" xlink:href="#bd"/><use transform="matrix(0.05,0,0,0.05,36.900000000000006,0)" xlink:href="#be"/><use transform="matrix(0.05,0,0,0.05,41.900000000000006,0)" xlink:href="#bf"/></g><path fill="#1d262b" d="M72-63c-8 23 5 39 32 30L98-1C54 14 12-6 23-64l18-93H15l7-33h28l24-45h31l-8 45h35l-6 33H90" id="bg"/><path fill="#1d262b" d="M156-122c2-23-7-37-28-37-47 0-58 44-58 89 0 24 12 40 36 40 43 0 47-49 50-92zM-8 75l50-265h48c0 10-3 24-3 30 22-50 127-45 121 29-6 73-21 135-92 135-29 0-46-14-55-35L41 75H-8" id="bh"/><g id="u"><use transform="matrix(0.05,0,0,0.05,0,0)" xlink:href="#ba"/><use transform="matrix(0.05,0,0,0.05,10,0)" xlink:href="#bg"/><use transform="matrix(0.05,0,0,0.05,15.949999999999998,0)" xlink:href="#bf"/><use transform="matrix(0.05,0,0,0.05,25.950000000000003,0)" xlink:href="#bh"/></g><path fill="#1d262b" d="M84-151c13-25 34-51 72-40l-8 41C67-170 71-64 56 0H6l36-190h47" id="bi"/><path fill="#1d262b" d="M166-52c-4 17 5 29 24 23l-3 27c-30 11-74 1-67-34C105-15 91 4 56 4 23 4 3-15 2-49c0-64 63-67 128-67 10-22 3-53-29-45-13 3-22 10-25 24l-46-5c5-64 156-77 153 0-1 33-11 60-17 90zM97-88c-44-9-64 57-19 57 31 0 42-28 47-57H97" id="bj"/><path fill="#1d262b" d="M124-194c51 0 84 22 84 74C207-44 167 4 94 4 43 4 11-23 11-74c0-74 41-120 113-120zM99-30c46 0 58-42 58-86 0-27-11-44-37-44-44 0-55 40-57 84-1 27 10 45 36 46" id="bk"/><g id="v"><use transform="matrix(0.05,0,0,0.05,0,0)" xlink:href="#bd"/><use transform="matrix(0.05,0,0,0.05,10.950000000000001,0)" xlink:href="#bf"/><use transform="matrix(0.05,0,0,0.05,20.950000000000003,0)" xlink:href="#bc"/><use transform="matrix(0.05,0,0,0.05,31.900000000000006,0)" xlink:href="#bf"/><use transform="matrix(0.05,0,0,0.05,41.900000000000006,0)" xlink:href="#bi"/><use transform="matrix(0.05,0,0,0.05,48.900000000000006,0)" xlink:href="#bj"/><use transform="matrix(0.05,0,0,0.05,58.900000000000006,0)" xlink:href="#bg"/><use transform="matrix(0.05,0,0,0.05,64.85000000000001,0)" xlink:href="#bb"/><use transform="matrix(0.05,0,0,0.05,69.85000000000001,0)" xlink:href="#bk"/><use transform="matrix(0.05,0,0,0.05,80.80000000000001,0)" xlink:href="#bc"/></g><path fill="#1d262b" d="M133-28C103 26-5 8 13-77c13-62 24-115 90-117 29-1 46 15 56 35l19-102h32L160 0h-30zM45-64c-2 27 10 43 35 43 54-1 69-50 69-103 0-29-15-46-42-46-53-1-58 58-62 106" id="bl"/><path fill="#1d262b" d="M66-151c12-25 30-51 66-40l-6 26C45-176 58-65 38 0H6l36-190h30" id="bm"/><path fill="#1d262b" d="M165-48c-4 18 1 34 23 27l-3 20c-29 8-62 0-52-35h-2C116-14 99 4 63 4 30 4 8-16 8-49c0-68 71-67 138-67 10-26 0-56-31-54-26 1-42 9-47 31l-32-5c8-67 160-71 144 15-5 28-9 54-15 81zM42-50c3 52 80 24 89-6 7-12 7-24 11-38-47 1-103-4-100 44" id="bn"/><path fill="#1d262b" d="M76-167L44 0H12l33-167H18l4-23h27c3-47 25-81 82-69l-4 24c-35-8-44 15-46 45h37l-5 23H76" id="bo"/><path fill="#1d262b" d="M51-54c-9 22 5 41 31 30L79-1C43 14 10-4 19-52l22-115H19l5-23h22l19-43h21l-9 43h35l-4 23H73" id="bp"/><g id="w"><use transform="matrix(0.05,0,0,0.05,0,0)" xlink:href="#bl"/><use transform="matrix(0.05,0,0,0.05,10,0)" xlink:href="#bm"/><use transform="matrix(0.05,0,0,0.05,15.949999999999998,0)" xlink:href="#bn"/><use transform="matrix(0.05,0,0,0.05,25.950000000000003,0)" xlink:href="#bo"/><use transform="matrix(0.05,0,0,0.05,30.950000000000003,0)" xlink:href="#bp"/></g><path fill="#1d262b" d="M55-144c13 50 104 24 104 88C159 21 15 23 1-39l26-10c6 40 102 42 102-4-13-50-104-23-104-87 0-71 143-71 148-8l-29 4c-5-35-85-37-89 0" id="bq"/><path fill="#1d262b" d="M67-158c22-48 132-52 116 29L158 0h-32l25-140c3-38-53-32-70-12C52-117 51-52 38 0H6l36-190h30" id="br"/><g id="x"><use transform="matrix(0.05,0,0,0.05,0,0)" xlink:href="#bq"/><use transform="matrix(0.05,0,0,0.05,9,0)" xlink:href="#bp"/><use transform="matrix(0.05,0,0,0.05,14,0)" xlink:href="#bn"/><use transform="matrix(0.05,0,0,0.05,24,0)" xlink:href="#br"/><use transform="matrix(0.05,0,0,0.05,34,0)" xlink:href="#bl"/><use transform="matrix(0.05,0,0,0.05,44,0)" xlink:href="#bn"/><use transform="matrix(0.05,0,0,0.05,54,0)" xlink:href="#bm"/><use transform="matrix(0.05,0,0,0.05,59.95,0)" xlink:href="#bl"/></g><path fill="#1d262b" d="M50-231l6-30h32l-6 30H50zM6 0l37-190h31L37 0H6" id="bs"/><path fill="#1d262b" d="M111-194c62-3 86 47 72 106H45c-7 38 6 69 45 68 27-1 43-14 53-32l24 11C152-15 129 4 87 4 38 3 12-23 12-71c0-70 32-119 99-123zm44 81c14-66-71-72-95-28-4 8-8 17-11 28h106" id="bt"/><path fill="#1d262b" d="M44-68c0 29 11 47 38 47 30 0 42-19 51-41l28 9C148-21 126 4 82 4 31 4 10-29 12-85c3-77 74-140 146-93 12 8 15 23 18 40l-31 5c-1-22-13-36-36-36-52 0-65 49-65 101" id="bu"/><g id="y"><use transform="matrix(0.05,0,0,0.05,0,0)" xlink:href="#bl"/><use transform="matrix(0.05,0,0,0.05,10,0)" xlink:href="#bs"/><use transform="matrix(0.05,0,0,0.05,13.949999999999998,0)" xlink:href="#bm"/><use transform="matrix(0.05,0,0,0.05,19.9,0)" xlink:href="#bt"/><use transform="matrix(0.05,0,0,0.05,29.899999999999995,0)" xlink:href="#bu"/><use transform="matrix(0.05,0,0,0.05,38.9,0)" xlink:href="#bp"/></g><path fill="#1d262b" d="M124 0L87-78 21 0h-35l86-98-46-92h33l34 74 61-74h37l-83 92 50 98h-34" id="bv"/><path fill="#1d262b" d="M67-162c32-53 139-36 121 50C175-51 163 2 97 4 68 4 52-11 42-31 38 6 28 39 22 75H-9l50-265h29c-1 10 0 20-3 28zm89 36c0-26-10-43-35-43-54 0-67 50-69 103-1 29 14 45 42 46 53 0 62-58 62-106" id="bw"/><path fill="#1d262b" d="M30-147c31-64 166-65 159 27C183-49 158 1 86 4 9 8 1-88 30-147zM88-20c53 0 68-48 68-100 0-31-11-51-44-50-52 1-68 46-68 97 0 32 13 53 44 53" id="bx"/><g id="z"><use transform="matrix(0.05,0,0,0.05,0,0)" xlink:href="#bt"/><use transform="matrix(0.05,0,0,0.05,10,0)" xlink:href="#bv"/><use transform="matrix(0.05,0,0,0.05,19,0)" xlink:href="#bw"/><use transform="matrix(0.05,0,0,0.05,29,0)" xlink:href="#bx"/><use transform="matrix(0.05,0,0,0.05,39,0)" xlink:href="#bm"/><use transform="matrix(0.05,0,0,0.05,44.95,0)" xlink:href="#bp"/></g><g id="A"><use transform="matrix(0.05,0,0,0.05,0,0)" xlink:href="#aV"/><use transform="matrix(0.05,0,0,0.05,10,0)" xlink:href="#Y"/><use transform="matrix(0.05,0,0,0.05,15.949999999999998,0)" xlink:href="#aR"/><use transform="matrix(0.05,0,0,0.05,25.950000000000003,0)" xlink:href="#aa"/><use transform="matrix(0.05,0,0,0.05,30.950000000000003,0)" xlink:href="#ae"/></g><g id="B"><use transform="matrix(0.05,0,0,0.05,0,0)" xlink:href="#aK"/><use transform="matrix(0.05,0,0,0.05,10,0)" xlink:href="#aX"/><use transform="matrix(0.05,0,0,0.05,20,0)" xlink:href="#aZ"/><use transform="matrix(0.05,0,0,0.05,30,0)" xlink:href="#aW"/><use transform="matrix(0.05,0,0,0.05,33.95,0)" xlink:href="#ab"/><use transform="matrix(0.05,0,0,0.05,37.900000000000006,0)" xlink:href="#aN"/><use transform="matrix(0.05,0,0,0.05,46.900000000000006,0)" xlink:href="#aR"/><use transform="matrix(0.05,0,0,0.05,56.900000000000006,0)" xlink:href="#ae"/><use transform="matrix(0.05,0,0,0.05,61.900000000000006,0)" xlink:href="#ab"/><use transform="matrix(0.05,0,0,0.05,65.85000000000001,0)" xlink:href="#aS"/><use transform="matrix(0.05,0,0,0.05,75.85000000000001,0)" xlink:href="#ac"/></g><g id="C"><use transform="matrix(0.05,0,0,0.05,0,0)" xlink:href="#aN"/><use transform="matrix(0.05,0,0,0.05,9,0)" xlink:href="#aS"/><use transform="matrix(0.05,0,0,0.05,19,0)" xlink:href="#ac"/><use transform="matrix(0.05,0,0,0.05,29,0)" xlink:href="#aN"/><use transform="matrix(0.05,0,0,0.05,38,0)" xlink:href="#Z"/><use transform="matrix(0.05,0,0,0.05,48,0)" xlink:href="#aK"/><use transform="matrix(0.05,0,0,0.05,58,0)" xlink:href="#ae"/><use transform="matrix(0.05,0,0,0.05,63,0)" xlink:href="#ab"/><use transform="matrix(0.05,0,0,0.05,66.95,0)" xlink:href="#aS"/><use transform="matrix(0.05,0,0,0.05,76.95,0)" xlink:href="#ac"/></g><g id="D"><use transform="matrix(0.05,0,0,0.05,0,0)" xlink:href="#Y"/><use transform="matrix(0.05,0,0,0.05,5.95,0)" xlink:href="#Z"/><use transform="matrix(0.05,0,0,0.05,15.949999999999998,0)" xlink:href="#aa"/><use transform="matrix(0.05,0,0,0.05,20.95,0)" xlink:href="#ab"/><use transform="matrix(0.05,0,0,0.05,24.9,0)" xlink:href="#ac"/><use transform="matrix(0.05,0,0,0.05,34.9,0)" xlink:href="#Z"/><use transform="matrix(0.05,0,0,0.05,44.9,0)" xlink:href="#ad"/><use transform="matrix(0.05,0,0,0.05,59.85,0)" xlink:href="#Z"/><use transform="matrix(0.05,0,0,0.05,69.85,0)" xlink:href="#ac"/><use transform="matrix(0.05,0,0,0.05,79.85,0)" xlink:href="#ae"/></g><path fill="#1d262b" d="M232-93c-1 65-40 97-104 97C67 4 28-28 28-90v-158h33c8 89-33 224 67 224 102 0 64-133 71-224h33v155" id="by"/><path fill="#1d262b" d="M30 0v-248h33v221h125V0H30" id="bz"/><path fill="#1d262b" d="M0 4l72-265h28L28 4H0" id="bA"/><path fill="#1d262b" d="M195 0l-74-108L45 0H8l94-129-87-119h37l69 98 67-98h37l-84 118L233 0h-38" id="bB"/><g id="E"><use transform="matrix(0.05,0,0,0.05,0,0)" xlink:href="#by"/><use transform="matrix(0.05,0,0,0.05,12.950000000000001,0)" xlink:href="#aQ"/><use transform="matrix(0.05,0,0,0.05,27.900000000000002,0)" xlink:href="#bz"/><use transform="matrix(0.05,0,0,0.05,37.900000000000006,0)" xlink:href="#bA"/><use transform="matrix(0.05,0,0,0.05,42.900000000000006,0)" xlink:href="#bB"/><use transform="matrix(0.05,0,0,0.05,54.900000000000006,0)" xlink:href="#aQ"/><use transform="matrix(0.05,0,0,0.05,69.85000000000001,0)" xlink:href="#aT"/></g><path fill="#1d262b" d="M206 0h-36l-40-164L89 0H53L-1-190h32L70-26l43-164h34l41 164 42-164h31" id="bC"/><g id="F"><use transform="matrix(0.05,0,0,0.05,0,0)" xlink:href="#bC"/><use transform="matrix(0.05,0,0,0.05,12.950000000000001,0)" xlink:href="#ab"/><use transform="matrix(0.05,0,0,0.05,16.900000000000002,0)" xlink:href="#ae"/><use transform="matrix(0.05,0,0,0.05,21.900000000000002,0)" xlink:href="#aO"/></g><path fill="#1d262b" d="M16-82v-28h88v28H16" id="bD"/><path fill="#1d262b" d="M141 0L90-78 38 0H4l68-98-65-92h35l48 74 47-74h35l-64 92 68 98h-35" id="bE"/><g id="G"><use transform="matrix(0.05,0,0,0.05,0,0)" xlink:href="#Y"/><use transform="matrix(0.05,0,0,0.05,5.95,0)" xlink:href="#ab"/><use transform="matrix(0.05,0,0,0.05,9.9,0)" xlink:href="#aN"/><use transform="matrix(0.05,0,0,0.05,18.9,0)" xlink:href="#aO"/><use transform="matrix(0.05,0,0,0.05,28.899999999999995,0)" xlink:href="#bD"/><use transform="matrix(0.05,0,0,0.05,34.85,0)" xlink:href="#ae"/><use transform="matrix(0.05,0,0,0.05,39.85,0)" xlink:href="#Z"/><use transform="matrix(0.05,0,0,0.05,49.85,0)" xlink:href="#bE"/><use transform="matrix(0.05,0,0,0.05,58.85,0)" xlink:href="#ae"/></g><g id="H"><use transform="matrix(0.05,0,0,0.05,0,0)" xlink:href="#aN"/><use transform="matrix(0.05,0,0,0.05,9,0)" xlink:href="#aS"/><use transform="matrix(0.05,0,0,0.05,19,0)" xlink:href="#ad"/><use transform="matrix(0.05,0,0,0.05,33.95,0)" xlink:href="#ad"/><use transform="matrix(0.05,0,0,0.05,48.900000000000006,0)" xlink:href="#Z"/><use transform="matrix(0.05,0,0,0.05,58.900000000000006,0)" xlink:href="#ac"/><use transform="matrix(0.05,0,0,0.05,68.9,0)" xlink:href="#ae"/><use transform="matrix(0.05,0,0,0.05,73.9,0)" xlink:href="#aL"/></g><path fill="#1d262b" d="M240-174c0 40-23 61-54 70L253 0h-59l-57-94H76V0H24v-248c93 4 217-23 216 74zM76-134c48-2 112 12 112-38 0-48-66-32-112-35v73" id="bF"/><path fill="#1d262b" d="M185-48c-13 30-37 53-82 52C43 2 14-33 14-96s30-98 90-98c62 0 83 45 84 108H66c0 31 8 55 39 56 18 0 30-7 34-22zm-45-69c5-46-57-63-70-21-2 6-4 13-4 21h74" id="bG"/><path fill="#1d262b" d="M128 0H69L1-190h53L99-40l48-150h52" id="bH"/><path fill="#1d262b" d="M231 0h-52l-39-155L100 0H48L-1-190h46L77-45c9-52 24-97 36-145h53l37 145 32-145h46" id="bI"/><g id="I"><use transform="matrix(0.05,0,0,0.05,0,0)" xlink:href="#bF"/><use transform="matrix(0.05,0,0,0.05,12.950000000000001,0)" xlink:href="#bG"/><use transform="matrix(0.05,0,0,0.05,22.950000000000003,0)" xlink:href="#bH"/><use transform="matrix(0.05,0,0,0.05,32.95,0)" xlink:href="#aG"/><use transform="matrix(0.05,0,0,0.05,37.95,0)" xlink:href="#bG"/><use transform="matrix(0.05,0,0,0.05,47.95,0)" xlink:href="#bI"/></g><g id="J"><use transform="matrix(0.05,0,0,0.05,0,0)" xlink:href="#aQ"/><use transform="matrix(0.05,0,0,0.05,14.950000000000001,0)" xlink:href="#Z"/><use transform="matrix(0.05,0,0,0.05,24.950000000000003,0)" xlink:href="#ae"/><use transform="matrix(0.05,0,0,0.05,29.950000000000003,0)" xlink:href="#aR"/><use transform="matrix(0.05,0,0,0.05,39.95,0)" xlink:href="#ac"/><use transform="matrix(0.05,0,0,0.05,49.95,0)" xlink:href="#aS"/><use transform="matrix(0.05,0,0,0.05,59.95,0)" xlink:href="#Y"/><use transform="matrix(0.05,0,0,0.05,65.9,0)" xlink:href="#ad"/><use transform="matrix(0.05,0,0,0.05,80.85000000000001,0)" xlink:href="#aR"/></g><path fill="#1d262b" d="M24-248c93 1 206-16 204 79-1 75-69 88-152 82V0H24v-248zm52 121c47 0 100 7 100-41 0-47-54-39-100-39v80" id="bJ"/><path fill="#1d262b" d="M85 4C-2 5 27-109 22-190h50c7 57-23 150 33 157 60-5 35-97 40-157h50l1 190h-47c-2-12 1-28-3-38-12 25-28 42-61 42" id="bK"/><path fill="#1d262b" d="M135-194c52 0 70 43 70 98 0 56-19 99-73 100-30 1-46-15-58-35L72 0H24l1-261h50v104c11-23 29-37 60-37zM114-30c31 0 40-27 40-66 0-37-7-63-39-63s-41 28-41 65c0 36 8 64 40 64" id="bL"/><path fill="#1d262b" d="M25 0v-261h50V0H25" id="bM"/><path fill="#1d262b" d="M190-63c-7 42-38 67-86 67-59 0-84-38-90-98-12-110 154-137 174-36l-49 2c-2-19-15-32-35-32-30 0-35 28-38 64-6 74 65 87 74 30" id="bN"/><path fill="#1d262b" d="M110-194c64 0 96 36 96 99 0 64-35 99-97 99-61 0-95-36-95-99 0-62 34-99 96-99zm-1 164c35 0 45-28 45-65 0-40-10-65-43-65-34 0-45 26-45 65 0 36 10 65 43 65" id="bO"/><g id="K"><use transform="matrix(0.05,0,0,0.05,0,0)" xlink:href="#bJ"/><use transform="matrix(0.05,0,0,0.05,12,0)" xlink:href="#bK"/><use transform="matrix(0.05,0,0,0.05,22.950000000000003,0)" xlink:href="#bL"/><use transform="matrix(0.05,0,0,0.05,33.900000000000006,0)" xlink:href="#bM"/><use transform="matrix(0.05,0,0,0.05,38.900000000000006,0)" xlink:href="#aG"/><use transform="matrix(0.05,0,0,0.05,43.900000000000006,0)" xlink:href="#bN"/><use transform="matrix(0.05,0,0,0.05,53.900000000000006,0)" xlink:href="#aD"/><use transform="matrix(0.05,0,0,0.05,63.900000000000006,0)" xlink:href="#aF"/><use transform="matrix(0.05,0,0,0.05,69.85000000000001,0)" xlink:href="#aG"/><use transform="matrix(0.05,0,0,0.05,74.85000000000001,0)" xlink:href="#bO"/><use transform="matrix(0.05,0,0,0.05,85.80000000000001,0)" xlink:href="#aH"/></g><path fill="#1d262b" d="M197 0v-115H63V0H30v-248h33v105h134v-105h34V0h-34" id="bP"/><path fill="#1d262b" d="M127-220V0H93v-220H8v-28h204v28h-85" id="bQ"/><path fill="#1d262b" d="M30-248c118-7 216 8 213 122C240-48 200 0 122 0H30v-248zM63-27c89 8 146-16 146-99s-60-101-146-95v194" id="bR"/><path fill="#1d262b" d="M63-220v92h138v28H63V0H30v-248h175v28H63" id="bS"/><g id="L"><use transform="matrix(0.05,0,0,0.05,0,0)" xlink:href="#bP"/><use transform="matrix(0.05,0,0,0.05,12.950000000000001,0)" xlink:href="#bQ"/><use transform="matrix(0.05,0,0,0.05,23.900000000000002,0)" xlink:href="#aQ"/><use transform="matrix(0.05,0,0,0.05,38.85,0)" xlink:href="#bz"/><use transform="matrix(0.05,0,0,0.05,48.85,0)" xlink:href="#bA"/><use transform="matrix(0.05,0,0,0.05,53.85,0)" xlink:href="#aY"/><use transform="matrix(0.05,0,0,0.05,65.85,0)" xlink:href="#bR"/><use transform="matrix(0.05,0,0,0.05,78.8,0)" xlink:href="#bS"/></g><path fill="#1d262b" d="M67 3c-93-2-31-127-26-193h32L48-50c-3 39 53 32 70 12 30-34 30-101 43-152h32L157 0h-30c1-10 6-24 4-33-14 20-29 37-64 36" id="bT"/><path fill="#1d262b" d="M68-162c25-46 127-43 121 31C183-60 169 1 98 4 69 5 53-11 43-31L36 0H5l52-261h31zm88 36c2-27-9-43-34-43-55 0-70 51-70 103 0 29 15 45 43 46 52 0 58-58 61-106" id="bU"/><path fill="#1d262b" d="M6 0l50-261h32L37 0H6" id="bV"/><path fill="#1d262b" d="M67-158c15-20 31-36 64-36 94 0 33 127 27 194h-32l25-140c3-38-53-32-70-12C52-117 51-51 37 0H6l51-261h31" id="bW"/><g id="M"><use transform="matrix(0.05,0,0,0.05,0,0)" xlink:href="#bw"/><use transform="matrix(0.05,0,0,0.05,10,0)" xlink:href="#bT"/><use transform="matrix(0.05,0,0,0.05,20,0)" xlink:href="#bU"/><use transform="matrix(0.05,0,0,0.05,30,0)" xlink:href="#bV"/><use transform="matrix(0.05,0,0,0.05,33.95,0)" xlink:href="#bs"/><use transform="matrix(0.05,0,0,0.05,37.900000000000006,0)" xlink:href="#bq"/><use transform="matrix(0.05,0,0,0.05,46.900000000000006,0)" xlink:href="#bW"/></g><g id="N"><use transform="matrix(0.05,0,0,0.05,0,0)" xlink:href="#bp"/><use transform="matrix(0.05,0,0,0.05,5,0)" xlink:href="#bx"/></g><g id="O"><use transform="matrix(0.05,0,0,0.05,0,0)" xlink:href="#bq"/><use transform="matrix(0.05,0,0,0.05,9,0)" xlink:href="#bp"/><use transform="matrix(0.05,0,0,0.05,14,0)" xlink:href="#bn"/><use transform="matrix(0.05,0,0,0.05,24,0)" xlink:href="#br"/><use transform="matrix(0.05,0,0,0.05,34,0)" xlink:href="#bl"/><use transform="matrix(0.05,0,0,0.05,44,0)" xlink:href="#bn"/><use transform="matrix(0.05,0,0,0.05,54,0)" xlink:href="#bm"/><use transform="matrix(0.05,0,0,0.05,59.95,0)" xlink:href="#bl"/></g><path fill="#0c7cba" d="M68-162c25-46 127-43 121 31C183-60 169 1 98 4 69 5 53-11 43-31L36 0H5l52-261h31zm88 36c2-27-9-43-34-43-55 0-70 51-70 103 0 29 15 45 43 46 52 0 58-58 61-106" id="bX"/><path fill="#0c7cba" d="M6 0l50-261h32L37 0H6" id="bY"/><path fill="#0c7cba" d="M198-190L69 30C53 58 25 83-20 72c4-11-1-27 19-22 33-1 43-29 59-52L20-190h32L79-34l84-156h35" id="bZ"/><g id="P"><use transform="matrix(0.05,0,0,0.05,0,0)" xlink:href="#au"/><use transform="matrix(0.05,0,0,0.05,10,0)" xlink:href="#bX"/><use transform="matrix(0.05,0,0,0.05,20,0)" xlink:href="#ai"/><use transform="matrix(0.05,0,0,0.05,23.95,0)" xlink:href="#bY"/><use transform="matrix(0.05,0,0,0.05,27.899999999999995,0)" xlink:href="#ai"/><use transform="matrix(0.05,0,0,0.05,31.849999999999994,0)" xlink:href="#am"/><use transform="matrix(0.05,0,0,0.05,36.849999999999994,0)" xlink:href="#bZ"/></g><g id="Q"><use transform="matrix(0.05,0,0,0.05,0,0)" xlink:href="#am"/><use transform="matrix(0.05,0,0,0.05,5,0)" xlink:href="#aA"/></g><path fill="#0c7cba" d="M76-167L44 0H12l33-167H18l4-23h27c3-47 25-81 82-69l-4 24c-35-8-44 15-46 45h37l-5 23H76" id="ca"/><g id="R"><use transform="matrix(0.05,0,0,0.05,0,0)" xlink:href="#aj"/><use transform="matrix(0.05,0,0,0.05,5.95,0)" xlink:href="#ak"/><use transform="matrix(0.05,0,0,0.05,15.949999999999998,0)" xlink:href="#ca"/><use transform="matrix(0.05,0,0,0.05,20.95,0)" xlink:href="#ak"/><use transform="matrix(0.05,0,0,0.05,30.950000000000003,0)" xlink:href="#aj"/></g><g id="S"><use transform="matrix(0.05,0,0,0.05,0,0)" xlink:href="#am"/><use transform="matrix(0.05,0,0,0.05,5,0)" xlink:href="#aA"/></g><path fill="#0c7cba" d="M18-82l6-28h88l-6 28H18" id="cb"/><g id="T"><use transform="matrix(0.05,0,0,0.05,0,0)" xlink:href="#an"/><use transform="matrix(0.05,0,0,0.05,12.950000000000001,0)" xlink:href="#ao"/><use transform="matrix(0.05,0,0,0.05,27.900000000000002,0)" xlink:href="#ap"/><use transform="matrix(0.05,0,0,0.05,37.900000000000006,0)" xlink:href="#cb"/><use transform="matrix(0.05,0,0,0.05,43.85000000000001,0)" xlink:href="#ax"/><use transform="matrix(0.05,0,0,0.05,53.85,0)" xlink:href="#ak"/><use transform="matrix(0.05,0,0,0.05,63.85,0)" xlink:href="#aw"/><use transform="matrix(0.05,0,0,0.05,73.85000000000001,0)" xlink:href="#ak"/><use transform="matrix(0.05,0,0,0.05,83.85000000000001,0)" xlink:href="#aj"/><use transform="matrix(0.05,0,0,0.05,89.80000000000001,0)" xlink:href="#au"/><use transform="matrix(0.05,0,0,0.05,99.80000000000001,0)" xlink:href="#am"/><use transform="matrix(0.05,0,0,0.05,104.80000000000001,0)" xlink:href="#ak"/><use transform="matrix(0.05,0,0,0.05,114.80000000000001,0)" xlink:href="#ah"/></g><path fill="#0c7cba" d="M67 3c-93-2-31-127-26-193h32L48-50c-3 39 53 32 70 12 30-34 30-101 43-152h32L157 0h-30c1-10 6-24 4-33-14 20-29 37-64 36" id="cc"/><g id="U"><use transform="matrix(0.05,0,0,0.05,0,0)" xlink:href="#ah"/><use transform="matrix(0.05,0,0,0.05,10,0)" xlink:href="#aA"/><use transform="matrix(0.05,0,0,0.05,20,0)" xlink:href="#al"/><use transform="matrix(0.05,0,0,0.05,29,0)" xlink:href="#cc"/><use transform="matrix(0.05,0,0,0.05,39,0)" xlink:href="#ay"/><use transform="matrix(0.05,0,0,0.05,53.95,0)" xlink:href="#ak"/><use transform="matrix(0.05,0,0,0.05,63.95,0)" xlink:href="#aw"/><use transform="matrix(0.05,0,0,0.05,73.95,0)" xlink:href="#am"/></g><g id="V"><use transform="matrix(0.05,0,0,0.05,0,0)" xlink:href="#ak"/><use transform="matrix(0.05,0,0,0.05,10,0)" xlink:href="#bY"/><use transform="matrix(0.05,0,0,0.05,13.949999999999998,0)" xlink:href="#ak"/><use transform="matrix(0.05,0,0,0.05,23.95,0)" xlink:href="#ay"/><use transform="matrix(0.05,0,0,0.05,38.9,0)" xlink:href="#ak"/><use transform="matrix(0.05,0,0,0.05,48.9,0)" xlink:href="#aw"/><use transform="matrix(0.05,0,0,0.05,58.900000000000006,0)" xlink:href="#am"/><use transform="matrix(0.05,0,0,0.05,63.900000000000006,0)" xlink:href="#av"/></g><path fill="#0c7cba" d="M188 0h-37l-8-164L71 0H34L18-190h31l8 164 75-164h34l8 164 74-164h31" id="cd"/><path fill="#0c7cba" d="M67-158c15-20 31-36 64-36 94 0 33 127 27 194h-32l25-140c3-38-53-32-70-12C52-117 51-51 37 0H6l51-261h31" id="ce"/><g id="W"><use transform="matrix(0.05,0,0,0.05,0,0)" xlink:href="#cd"/><use transform="matrix(0.05,0,0,0.05,12.950000000000001,0)" xlink:href="#ai"/><use transform="matrix(0.05,0,0,0.05,16.900000000000002,0)" xlink:href="#am"/><use transform="matrix(0.05,0,0,0.05,21.900000000000002,0)" xlink:href="#ce"/><use transform="matrix(0.05,0,0,0.05,31.900000000000002,0)" xlink:href="#ai"/><use transform="matrix(0.05,0,0,0.05,35.85,0)" xlink:href="#aw"/></g><g id="X"><use transform="matrix(0.05,0,0,0.05,0,0)" xlink:href="#ah"/><use transform="matrix(0.05,0,0,0.05,10,0)" xlink:href="#aA"/><use transform="matrix(0.05,0,0,0.05,20,0)" xlink:href="#al"/><use transform="matrix(0.05,0,0,0.05,29,0)" xlink:href="#cc"/><use transform="matrix(0.05,0,0,0.05,39,0)" xlink:href="#ay"/><use transform="matrix(0.05,0,0,0.05,53.95,0)" xlink:href="#ak"/><use transform="matrix(0.05,0,0,0.05,63.95,0)" xlink:href="#aw"/><use transform="matrix(0.05,0,0,0.05,73.95,0)" xlink:href="#am"/></g></defs></g></svg>