<svg xmlns="http://www.w3.org/2000/svg" xmlns:xlink="http://www.w3.org/1999/xlink" xmlns:lucid="lucid" width="1280" height="900"><g transform="translate(60 -140)" lucid:page-tab-id="9r-rguwvi77U"><path d="M260 166c0-3.3 2.7-6 6-6h188c3.3 0 6 2.7 6 6v68c0 3.3-2.7 6-6 6H266c-3.3 0-6-2.7-6-6z" stroke="#4881b3" stroke-width="3" fill="#f5fbff"/><use xlink:href="#a" transform="matrix(1,0,0,1,272,172) translate(9.625 31.9)"/><use xlink:href="#b" transform="matrix(1,0,0,1,272,172) translate(96.47500000000001 31.9)"/><path d="M-40 166c0-3.3 2.7-6 6-6h168c3.3 0 6 2.7 6 6v68c0 3.3-2.7 6-6 6H-34c-3.3 0-6-2.7-6-6z" fill="#c7e8ac"/><path d="M-38.5 166c0 .83-.67 1.5-1.5 1.5s-1.5-.67-1.5-1.5.67-1.5 1.5-1.5 1.5.67 1.5 1.5zm1.9-4.1c0 .82-.68 1.5-1.5 1.5-.83 0-1.5-.68-1.5-1.5 0-.83.67-1.5 1.5-1.5.82 0 1.5.67 1.5 1.5zm4.1-1.9c0 .83-.67 1.5-1.5 1.5s-1.5-.67-1.5-1.5.67-1.5 1.5-1.5 1.5.67 1.5 1.5zm6 0c0 .83-.67 1.5-1.5 1.5s-1.5-.67-1.5-1.5.67-1.5 1.5-1.5 1.5.67 1.5 1.5zm6 0c0 .83-.67 1.5-1.5 1.5s-1.5-.67-1.5-1.5.67-1.5 1.5-1.5 1.5.67 1.5 1.5zm6 0c0 .83-.67 1.5-1.5 1.5s-1.5-.67-1.5-1.5.67-1.5 1.5-1.5 1.5.67 1.5 1.5zm6 0c0 .83-.67 1.5-1.5 1.5s-1.5-.67-1.5-1.5.67-1.5 1.5-1.5 1.5.67 1.5 1.5zm6 0c0 .83-.67 1.5-1.5 1.5s-1.5-.67-1.5-1.5.67-1.5 1.5-1.5 1.5.67 1.5 1.5zm6 0c0 .83-.67 1.5-1.5 1.5S.5 160.83.5 160s.67-1.5 1.5-1.5 1.5.67 1.5 1.5zm6 0c0 .83-.67 1.5-1.5 1.5s-1.5-.67-1.5-1.5.67-1.5 1.5-1.5 1.5.67 1.5 1.5zm6 0c0 .83-.67 1.5-1.5 1.5s-1.5-.67-1.5-1.5.67-1.5 1.5-1.5 1.5.67 1.5 1.5zm6 0c0 .83-.67 1.5-1.5 1.5s-1.5-.67-1.5-1.5.67-1.5 1.5-1.5 1.5.67 1.5 1.5zm6 0c0 .83-.67 1.5-1.5 1.5s-1.5-.67-1.5-1.5.67-1.5 1.5-1.5 1.5.67 1.5 1.5zm6 0c0 .83-.67 1.5-1.5 1.5s-1.5-.67-1.5-1.5.67-1.5 1.5-1.5 1.5.67 1.5 1.5zm6 0c0 .83-.67 1.5-1.5 1.5s-1.5-.67-1.5-1.5.67-1.5 1.5-1.5 1.5.67 1.5 1.5zm6 0c0 .83-.67 1.5-1.5 1.5s-1.5-.67-1.5-1.5.67-1.5 1.5-1.5 1.5.67 1.5 1.5zm6 0c0 .83-.67 1.5-1.5 1.5s-1.5-.67-1.5-1.5.67-1.5 1.5-1.5 1.5.67 1.5 1.5zm6 0c0 .83-.67 1.5-1.5 1.5s-1.5-.67-1.5-1.5.67-1.5 1.5-1.5 1.5.67 1.5 1.5zm6 0c0 .83-.67 1.5-1.5 1.5s-1.5-.67-1.5-1.5.67-1.5 1.5-1.5 1.5.67 1.5 1.5zm6 0c0 .83-.67 1.5-1.5 1.5s-1.5-.67-1.5-1.5.67-1.5 1.5-1.5 1.5.67 1.5 1.5zm6 0c0 .83-.67 1.5-1.5 1.5s-1.5-.67-1.5-1.5.67-1.5 1.5-1.5 1.5.67 1.5 1.5zm6 0c0 .83-.67 1.5-1.5 1.5s-1.5-.67-1.5-1.5.67-1.5 1.5-1.5 1.5.67 1.5 1.5zm6 0c0 .83-.67 1.5-1.5 1.5s-1.5-.67-1.5-1.5.67-1.5 1.5-1.5 1.5.67 1.5 1.5zm6 0c0 .83-.67 1.5-1.5 1.5s-1.5-.67-1.5-1.5.67-1.5 1.5-1.5 1.5.67 1.5 1.5zm6 0c0 .83-.67 1.5-1.5 1.5s-1.5-.67-1.5-1.5.67-1.5 1.5-1.5 1.5.67 1.5 1.5zm6 0c0 .83-.67 1.5-1.5 1.5s-1.5-.67-1.5-1.5.67-1.5 1.5-1.5 1.5.67 1.5 1.5zm6 0c0 .83-.67 1.5-1.5 1.5s-1.5-.67-1.5-1.5.67-1.5 1.5-1.5 1.5.67 1.5 1.5zm6 0c0 .83-.67 1.5-1.5 1.5s-1.5-.67-1.5-1.5.67-1.5 1.5-1.5 1.5.67 1.5 1.5zm6 0c0 .83-.67 1.5-1.5 1.5s-1.5-.67-1.5-1.5.67-1.5 1.5-1.5 1.5.67 1.5 1.5zm6 0c0 .83-.67 1.5-1.5 1.5s-1.5-.67-1.5-1.5.67-1.5 1.5-1.5 1.5.67 1.5 1.5zm6 0c0 .83-.67 1.5-1.5 1.5s-1.5-.67-1.5-1.5.67-1.5 1.5-1.5 1.5.67 1.5 1.5zm4.1 1.9c0 .82-.67 1.5-1.5 1.5-.82 0-1.5-.68-1.5-1.5 0-.83.68-1.5 1.5-1.5.83 0 1.5.67 1.5 1.5zm1.9 4.1c0 .83-.67 1.5-1.5 1.5s-1.5-.67-1.5-1.5.67-1.5 1.5-1.5 1.5.67 1.5 1.5zm0 6.18c0 .83-.67 1.5-1.5 1.5s-1.5-.67-1.5-1.5.67-1.5 1.5-1.5 1.5.67 1.5 1.5zm0 6.18c0 .83-.67 1.5-1.5 1.5s-1.5-.67-1.5-1.5c0-.82.67-1.5 1.5-1.5s1.5.68 1.5 1.5zm0 6.2c0 .8-.67 1.5-1.5 1.5s-1.5-.7-1.5-1.5c0-.84.67-1.5 1.5-1.5s1.5.66 1.5 1.5zm0 6.17c0 .83-.67 1.5-1.5 1.5s-1.5-.67-1.5-1.5.67-1.5 1.5-1.5 1.5.67 1.5 1.5zm0 6.18c0 .84-.67 1.5-1.5 1.5s-1.5-.66-1.5-1.5c0-.82.67-1.5 1.5-1.5s1.5.68 1.5 1.5zm0 6.2c0 .82-.67 1.5-1.5 1.5s-1.5-.68-1.5-1.5c0-.84.67-1.5 1.5-1.5s1.5.66 1.5 1.5zm0 6.17c0 .83-.67 1.5-1.5 1.5s-1.5-.67-1.5-1.5.67-1.5 1.5-1.5 1.5.67 1.5 1.5zm0 6.18c0 .83-.67 1.5-1.5 1.5s-1.5-.67-1.5-1.5c0-.82.67-1.5 1.5-1.5s1.5.68 1.5 1.5zm0 6.2c0 .8-.67 1.5-1.5 1.5s-1.5-.7-1.5-1.5c0-.84.67-1.5 1.5-1.5s1.5.66 1.5 1.5zm0 6.17c0 .83-.67 1.5-1.5 1.5s-1.5-.67-1.5-1.5.67-1.5 1.5-1.5 1.5.67 1.5 1.5zm0 6.18c0 .83-.67 1.5-1.5 1.5s-1.5-.67-1.5-1.5.67-1.5 1.5-1.5 1.5.67 1.5 1.5zm-1.9 4.1c0 .83-.67 1.5-1.5 1.5-.82 0-1.5-.67-1.5-1.5 0-.82.68-1.5 1.5-1.5.83 0 1.5.68 1.5 1.5zm-4.1 1.9c0 .83-.67 1.5-1.5 1.5s-1.5-.67-1.5-1.5.67-1.5 1.5-1.5 1.5.67 1.5 1.5zm-6 0c0 .83-.67 1.5-1.5 1.5s-1.5-.67-1.5-1.5.67-1.5 1.5-1.5 1.5.67 1.5 1.5zm-6 0c0 .83-.67 1.5-1.5 1.5s-1.5-.67-1.5-1.5.67-1.5 1.5-1.5 1.5.67 1.5 1.5zm-6 0c0 .83-.67 1.5-1.5 1.5s-1.5-.67-1.5-1.5.67-1.5 1.5-1.5 1.5.67 1.5 1.5zm-6 0c0 .83-.67 1.5-1.5 1.5s-1.5-.67-1.5-1.5.67-1.5 1.5-1.5 1.5.67 1.5 1.5zm-6 0c0 .83-.67 1.5-1.5 1.5s-1.5-.67-1.5-1.5.67-1.5 1.5-1.5 1.5.67 1.5 1.5zm-6 0c0 .83-.67 1.5-1.5 1.5s-1.5-.67-1.5-1.5.67-1.5 1.5-1.5 1.5.67 1.5 1.5zm-6 0c0 .83-.67 1.5-1.5 1.5s-1.5-.67-1.5-1.5.67-1.5 1.5-1.5 1.5.67 1.5 1.5zm-6 0c0 .83-.67 1.5-1.5 1.5s-1.5-.67-1.5-1.5.67-1.5 1.5-1.5 1.5.67 1.5 1.5zm-6 0c0 .83-.67 1.5-1.5 1.5s-1.5-.67-1.5-1.5.67-1.5 1.5-1.5 1.5.67 1.5 1.5zm-6 0c0 .83-.67 1.5-1.5 1.5s-1.5-.67-1.5-1.5.67-1.5 1.5-1.5 1.5.67 1.5 1.5zm-6 0c0 .83-.67 1.5-1.5 1.5s-1.5-.67-1.5-1.5.67-1.5 1.5-1.5 1.5.67 1.5 1.5zm-6 0c0 .83-.67 1.5-1.5 1.5s-1.5-.67-1.5-1.5.67-1.5 1.5-1.5 1.5.67 1.5 1.5zm-6 0c0 .83-.67 1.5-1.5 1.5s-1.5-.67-1.5-1.5.67-1.5 1.5-1.5 1.5.67 1.5 1.5zm-6 0c0 .83-.67 1.5-1.5 1.5s-1.5-.67-1.5-1.5.67-1.5 1.5-1.5 1.5.67 1.5 1.5zm-6 0c0 .83-.67 1.5-1.5 1.5s-1.5-.67-1.5-1.5.67-1.5 1.5-1.5 1.5.67 1.5 1.5zm-6 0c0 .83-.67 1.5-1.5 1.5s-1.5-.67-1.5-1.5.67-1.5 1.5-1.5 1.5.67 1.5 1.5zm-6 0c0 .83-.67 1.5-1.5 1.5s-1.5-.67-1.5-1.5.67-1.5 1.5-1.5 1.5.67 1.5 1.5zm-6 0c0 .83-.67 1.5-1.5 1.5s-1.5-.67-1.5-1.5.67-1.5 1.5-1.5 1.5.67 1.5 1.5zm-6 0c0 .83-.67 1.5-1.5 1.5s-1.5-.67-1.5-1.5.67-1.5 1.5-1.5 1.5.67 1.5 1.5zm-6 0c0 .83-.67 1.5-1.5 1.5s-1.5-.67-1.5-1.5.67-1.5 1.5-1.5 1.5.67 1.5 1.5zm-6 0c0 .83-.67 1.5-1.5 1.5s-1.5-.67-1.5-1.5.67-1.5 1.5-1.5 1.5.67 1.5 1.5zm-6 0c0 .83-.67 1.5-1.5 1.5S.5 240.83.5 240s.67-1.5 1.5-1.5 1.5.67 1.5 1.5zm-6 0c0 .83-.67 1.5-1.5 1.5s-1.5-.67-1.5-1.5.67-1.5 1.5-1.5 1.5.67 1.5 1.5zm-6 0c0 .83-.67 1.5-1.5 1.5s-1.5-.67-1.5-1.5.67-1.5 1.5-1.5 1.5.67 1.5 1.5zm-6 0c0 .83-.67 1.5-1.5 1.5s-1.5-.67-1.5-1.5.67-1.5 1.5-1.5 1.5.67 1.5 1.5zm-6 0c0 .83-.67 1.5-1.5 1.5s-1.5-.67-1.5-1.5.67-1.5 1.5-1.5 1.5.67 1.5 1.5zm-6 0c0 .83-.67 1.5-1.5 1.5s-1.5-.67-1.5-1.5.67-1.5 1.5-1.5 1.5.67 1.5 1.5zm-6 0c0 .83-.67 1.5-1.5 1.5s-1.5-.67-1.5-1.5.67-1.5 1.5-1.5 1.5.67 1.5 1.5zm-4.1-1.9c0 .83-.68 1.5-1.5 1.5-.83 0-1.5-.67-1.5-1.5 0-.82.67-1.5 1.5-1.5.82 0 1.5.68 1.5 1.5zm-1.9-4.1c0 .83-.67 1.5-1.5 1.5s-1.5-.67-1.5-1.5.67-1.5 1.5-1.5 1.5.67 1.5 1.5zm0-6.18c0 .83-.67 1.5-1.5 1.5s-1.5-.67-1.5-1.5.67-1.5 1.5-1.5 1.5.67 1.5 1.5zm0-6.18c0 .82-.67 1.5-1.5 1.5s-1.5-.68-1.5-1.5c0-.83.67-1.5 1.5-1.5s1.5.67 1.5 1.5zm0-6.2c0 .84-.67 1.5-1.5 1.5s-1.5-.66-1.5-1.5c0-.8.67-1.5 1.5-1.5s1.5.7 1.5 1.5zm0-6.17c0 .83-.67 1.5-1.5 1.5s-1.5-.67-1.5-1.5.67-1.5 1.5-1.5 1.5.67 1.5 1.5zm0-6.18c0 .82-.67 1.5-1.5 1.5s-1.5-.68-1.5-1.5c0-.84.67-1.5 1.5-1.5s1.5.66 1.5 1.5zm0-6.2c0 .84-.67 1.5-1.5 1.5s-1.5-.66-1.5-1.5c0-.82.67-1.5 1.5-1.5s1.5.68 1.5 1.5zm0-6.17c0 .83-.67 1.5-1.5 1.5s-1.5-.67-1.5-1.5.67-1.5 1.5-1.5 1.5.67 1.5 1.5zm0-6.18c0 .82-.67 1.5-1.5 1.5s-1.5-.68-1.5-1.5c0-.83.67-1.5 1.5-1.5s1.5.67 1.5 1.5zm0-6.2c0 .84-.67 1.5-1.5 1.5s-1.5-.66-1.5-1.5c0-.8.67-1.5 1.5-1.5s1.5.7 1.5 1.5zm0-6.17c0 .83-.67 1.5-1.5 1.5s-1.5-.67-1.5-1.5.67-1.5 1.5-1.5 1.5.67 1.5 1.5zm0-6.18c0 .83-.67 1.5-1.5 1.5s-1.5-.67-1.5-1.5.67-1.5 1.5-1.5 1.5.67 1.5 1.5z" fill="#7ab648"/><use xlink:href="#c" transform="matrix(1,0,0,1,-35,165) translate(34.925 38.4625)"/><use xlink:href="#d" transform="matrix(1,0,0,1,-35,165) translate(77.175 38.4625)"/><path d="M142.5 200h10.83m10.84 0h21.66m10.84 0h21.66m10.83 0H240" stroke="#224c72" stroke-width="2" fill="none"/><path d="M142.53 201h-1.03v-2h1.03" fill="#224c72"/><path d="M255.26 200L241 204.64v-9.28z" stroke="#224c72" stroke-width="2" fill="#224c72"/><path d="M-40 426c0-3.3 2.7-6 6-6h168c3.3 0 6 2.7 6 6v68c0 3.3-2.7 6-6 6H-34c-3.3 0-6-2.7-6-6z" fill="#c7e8ac"/><path d="M-38.5 426c0 .83-.67 1.5-1.5 1.5s-1.5-.67-1.5-1.5.67-1.5 1.5-1.5 1.5.67 1.5 1.5zm1.9-4.1c0 .82-.68 1.5-1.5 1.5-.83 0-1.5-.68-1.5-1.5 0-.83.67-1.5 1.5-1.5.82 0 1.5.67 1.5 1.5zm4.1-1.9c0 .83-.67 1.5-1.5 1.5s-1.5-.67-1.5-1.5.67-1.5 1.5-1.5 1.5.67 1.5 1.5zm6 0c0 .83-.67 1.5-1.5 1.5s-1.5-.67-1.5-1.5.67-1.5 1.5-1.5 1.5.67 1.5 1.5zm6 0c0 .83-.67 1.5-1.5 1.5s-1.5-.67-1.5-1.5.67-1.5 1.5-1.5 1.5.67 1.5 1.5zm6 0c0 .83-.67 1.5-1.5 1.5s-1.5-.67-1.5-1.5.67-1.5 1.5-1.5 1.5.67 1.5 1.5zm6 0c0 .83-.67 1.5-1.5 1.5s-1.5-.67-1.5-1.5.67-1.5 1.5-1.5 1.5.67 1.5 1.5zm6 0c0 .83-.67 1.5-1.5 1.5s-1.5-.67-1.5-1.5.67-1.5 1.5-1.5 1.5.67 1.5 1.5zm6 0c0 .83-.67 1.5-1.5 1.5S.5 420.83.5 420s.67-1.5 1.5-1.5 1.5.67 1.5 1.5zm6 0c0 .83-.67 1.5-1.5 1.5s-1.5-.67-1.5-1.5.67-1.5 1.5-1.5 1.5.67 1.5 1.5zm6 0c0 .83-.67 1.5-1.5 1.5s-1.5-.67-1.5-1.5.67-1.5 1.5-1.5 1.5.67 1.5 1.5zm6 0c0 .83-.67 1.5-1.5 1.5s-1.5-.67-1.5-1.5.67-1.5 1.5-1.5 1.5.67 1.5 1.5zm6 0c0 .83-.67 1.5-1.5 1.5s-1.5-.67-1.5-1.5.67-1.5 1.5-1.5 1.5.67 1.5 1.5zm6 0c0 .83-.67 1.5-1.5 1.5s-1.5-.67-1.5-1.5.67-1.5 1.5-1.5 1.5.67 1.5 1.5zm6 0c0 .83-.67 1.5-1.5 1.5s-1.5-.67-1.5-1.5.67-1.5 1.5-1.5 1.5.67 1.5 1.5zm6 0c0 .83-.67 1.5-1.5 1.5s-1.5-.67-1.5-1.5.67-1.5 1.5-1.5 1.5.67 1.5 1.5zm6 0c0 .83-.67 1.5-1.5 1.5s-1.5-.67-1.5-1.5.67-1.5 1.5-1.5 1.5.67 1.5 1.5zm6 0c0 .83-.67 1.5-1.5 1.5s-1.5-.67-1.5-1.5.67-1.5 1.5-1.5 1.5.67 1.5 1.5zm6 0c0 .83-.67 1.5-1.5 1.5s-1.5-.67-1.5-1.5.67-1.5 1.5-1.5 1.5.67 1.5 1.5zm6 0c0 .83-.67 1.5-1.5 1.5s-1.5-.67-1.5-1.5.67-1.5 1.5-1.5 1.5.67 1.5 1.5zm6 0c0 .83-.67 1.5-1.5 1.5s-1.5-.67-1.5-1.5.67-1.5 1.5-1.5 1.5.67 1.5 1.5zm6 0c0 .83-.67 1.5-1.5 1.5s-1.5-.67-1.5-1.5.67-1.5 1.5-1.5 1.5.67 1.5 1.5zm6 0c0 .83-.67 1.5-1.5 1.5s-1.5-.67-1.5-1.5.67-1.5 1.5-1.5 1.5.67 1.5 1.5zm6 0c0 .83-.67 1.5-1.5 1.5s-1.5-.67-1.5-1.5.67-1.5 1.5-1.5 1.5.67 1.5 1.5zm6 0c0 .83-.67 1.5-1.5 1.5s-1.5-.67-1.5-1.5.67-1.5 1.5-1.5 1.5.67 1.5 1.5zm6 0c0 .83-.67 1.5-1.5 1.5s-1.5-.67-1.5-1.5.67-1.5 1.5-1.5 1.5.67 1.5 1.5zm6 0c0 .83-.67 1.5-1.5 1.5s-1.5-.67-1.5-1.5.67-1.5 1.5-1.5 1.5.67 1.5 1.5zm6 0c0 .83-.67 1.5-1.5 1.5s-1.5-.67-1.5-1.5.67-1.5 1.5-1.5 1.5.67 1.5 1.5zm6 0c0 .83-.67 1.5-1.5 1.5s-1.5-.67-1.5-1.5.67-1.5 1.5-1.5 1.5.67 1.5 1.5zm6 0c0 .83-.67 1.5-1.5 1.5s-1.5-.67-1.5-1.5.67-1.5 1.5-1.5 1.5.67 1.5 1.5zm6 0c0 .83-.67 1.5-1.5 1.5s-1.5-.67-1.5-1.5.67-1.5 1.5-1.5 1.5.67 1.5 1.5zm4.1 1.9c0 .82-.67 1.5-1.5 1.5-.82 0-1.5-.68-1.5-1.5 0-.83.68-1.5 1.5-1.5.83 0 1.5.67 1.5 1.5zm1.9 4.1c0 .83-.67 1.5-1.5 1.5s-1.5-.67-1.5-1.5.67-1.5 1.5-1.5 1.5.67 1.5 1.5zm0 6.18c0 .83-.67 1.5-1.5 1.5s-1.5-.67-1.5-1.5.67-1.5 1.5-1.5 1.5.67 1.5 1.5zm0 6.18c0 .83-.67 1.5-1.5 1.5s-1.5-.67-1.5-1.5c0-.82.67-1.5 1.5-1.5s1.5.68 1.5 1.5zm0 6.2c0 .8-.67 1.5-1.5 1.5s-1.5-.7-1.5-1.5c0-.84.67-1.5 1.5-1.5s1.5.66 1.5 1.5zm0 6.17c0 .83-.67 1.5-1.5 1.5s-1.5-.67-1.5-1.5.67-1.5 1.5-1.5 1.5.67 1.5 1.5zm0 6.18c0 .84-.67 1.5-1.5 1.5s-1.5-.66-1.5-1.5c0-.82.67-1.5 1.5-1.5s1.5.68 1.5 1.5zm0 6.2c0 .82-.67 1.5-1.5 1.5s-1.5-.68-1.5-1.5c0-.84.67-1.5 1.5-1.5s1.5.66 1.5 1.5zm0 6.17c0 .83-.67 1.5-1.5 1.5s-1.5-.67-1.5-1.5.67-1.5 1.5-1.5 1.5.67 1.5 1.5zm0 6.18c0 .83-.67 1.5-1.5 1.5s-1.5-.67-1.5-1.5c0-.82.67-1.5 1.5-1.5s1.5.68 1.5 1.5zm0 6.2c0 .8-.67 1.5-1.5 1.5s-1.5-.7-1.5-1.5c0-.84.67-1.5 1.5-1.5s1.5.66 1.5 1.5zm0 6.17c0 .83-.67 1.5-1.5 1.5s-1.5-.67-1.5-1.5.67-1.5 1.5-1.5 1.5.67 1.5 1.5zm0 6.18c0 .83-.67 1.5-1.5 1.5s-1.5-.67-1.5-1.5.67-1.5 1.5-1.5 1.5.67 1.5 1.5zm-1.9 4.1c0 .83-.67 1.5-1.5 1.5-.82 0-1.5-.67-1.5-1.5 0-.82.68-1.5 1.5-1.5.83 0 1.5.68 1.5 1.5zm-4.1 1.9c0 .83-.67 1.5-1.5 1.5s-1.5-.67-1.5-1.5.67-1.5 1.5-1.5 1.5.67 1.5 1.5zm-6 0c0 .83-.67 1.5-1.5 1.5s-1.5-.67-1.5-1.5.67-1.5 1.5-1.5 1.5.67 1.5 1.5zm-6 0c0 .83-.67 1.5-1.5 1.5s-1.5-.67-1.5-1.5.67-1.5 1.5-1.5 1.5.67 1.5 1.5zm-6 0c0 .83-.67 1.5-1.5 1.5s-1.5-.67-1.5-1.5.67-1.5 1.5-1.5 1.5.67 1.5 1.5zm-6 0c0 .83-.67 1.5-1.5 1.5s-1.5-.67-1.5-1.5.67-1.5 1.5-1.5 1.5.67 1.5 1.5zm-6 0c0 .83-.67 1.5-1.5 1.5s-1.5-.67-1.5-1.5.67-1.5 1.5-1.5 1.5.67 1.5 1.5zm-6 0c0 .83-.67 1.5-1.5 1.5s-1.5-.67-1.5-1.5.67-1.5 1.5-1.5 1.5.67 1.5 1.5zm-6 0c0 .83-.67 1.5-1.5 1.5s-1.5-.67-1.5-1.5.67-1.5 1.5-1.5 1.5.67 1.5 1.5zm-6 0c0 .83-.67 1.5-1.5 1.5s-1.5-.67-1.5-1.5.67-1.5 1.5-1.5 1.5.67 1.5 1.5zm-6 0c0 .83-.67 1.5-1.5 1.5s-1.5-.67-1.5-1.5.67-1.5 1.5-1.5 1.5.67 1.5 1.5zm-6 0c0 .83-.67 1.5-1.5 1.5s-1.5-.67-1.5-1.5.67-1.5 1.5-1.5 1.5.67 1.5 1.5zm-6 0c0 .83-.67 1.5-1.5 1.5s-1.5-.67-1.5-1.5.67-1.5 1.5-1.5 1.5.67 1.5 1.5zm-6 0c0 .83-.67 1.5-1.5 1.5s-1.5-.67-1.5-1.5.67-1.5 1.5-1.5 1.5.67 1.5 1.5zm-6 0c0 .83-.67 1.5-1.5 1.5s-1.5-.67-1.5-1.5.67-1.5 1.5-1.5 1.5.67 1.5 1.5zm-6 0c0 .83-.67 1.5-1.5 1.5s-1.5-.67-1.5-1.5.67-1.5 1.5-1.5 1.5.67 1.5 1.5zm-6 0c0 .83-.67 1.5-1.5 1.5s-1.5-.67-1.5-1.5.67-1.5 1.5-1.5 1.5.67 1.5 1.5zm-6 0c0 .83-.67 1.5-1.5 1.5s-1.5-.67-1.5-1.5.67-1.5 1.5-1.5 1.5.67 1.5 1.5zm-6 0c0 .83-.67 1.5-1.5 1.5s-1.5-.67-1.5-1.5.67-1.5 1.5-1.5 1.5.67 1.5 1.5zm-6 0c0 .83-.67 1.5-1.5 1.5s-1.5-.67-1.5-1.5.67-1.5 1.5-1.5 1.5.67 1.5 1.5zm-6 0c0 .83-.67 1.5-1.5 1.5s-1.5-.67-1.5-1.5.67-1.5 1.5-1.5 1.5.67 1.5 1.5zm-6 0c0 .83-.67 1.5-1.5 1.5s-1.5-.67-1.5-1.5.67-1.5 1.5-1.5 1.5.67 1.5 1.5zm-6 0c0 .83-.67 1.5-1.5 1.5s-1.5-.67-1.5-1.5.67-1.5 1.5-1.5 1.5.67 1.5 1.5zm-6 0c0 .83-.67 1.5-1.5 1.5S.5 500.83.5 500s.67-1.5 1.5-1.5 1.5.67 1.5 1.5zm-6 0c0 .83-.67 1.5-1.5 1.5s-1.5-.67-1.5-1.5.67-1.5 1.5-1.5 1.5.67 1.5 1.5zm-6 0c0 .83-.67 1.5-1.5 1.5s-1.5-.67-1.5-1.5.67-1.5 1.5-1.5 1.5.67 1.5 1.5zm-6 0c0 .83-.67 1.5-1.5 1.5s-1.5-.67-1.5-1.5.67-1.5 1.5-1.5 1.5.67 1.5 1.5zm-6 0c0 .83-.67 1.5-1.5 1.5s-1.5-.67-1.5-1.5.67-1.5 1.5-1.5 1.5.67 1.5 1.5zm-6 0c0 .83-.67 1.5-1.5 1.5s-1.5-.67-1.5-1.5.67-1.5 1.5-1.5 1.5.67 1.5 1.5zm-6 0c0 .83-.67 1.5-1.5 1.5s-1.5-.67-1.5-1.5.67-1.5 1.5-1.5 1.5.67 1.5 1.5zm-4.1-1.9c0 .83-.68 1.5-1.5 1.5-.83 0-1.5-.67-1.5-1.5 0-.82.67-1.5 1.5-1.5.82 0 1.5.68 1.5 1.5zm-1.9-4.1c0 .83-.67 1.5-1.5 1.5s-1.5-.67-1.5-1.5.67-1.5 1.5-1.5 1.5.67 1.5 1.5zm0-6.18c0 .83-.67 1.5-1.5 1.5s-1.5-.67-1.5-1.5.67-1.5 1.5-1.5 1.5.67 1.5 1.5zm0-6.18c0 .82-.67 1.5-1.5 1.5s-1.5-.68-1.5-1.5c0-.83.67-1.5 1.5-1.5s1.5.67 1.5 1.5zm0-6.2c0 .84-.67 1.5-1.5 1.5s-1.5-.66-1.5-1.5c0-.8.67-1.5 1.5-1.5s1.5.7 1.5 1.5zm0-6.17c0 .83-.67 1.5-1.5 1.5s-1.5-.67-1.5-1.5.67-1.5 1.5-1.5 1.5.67 1.5 1.5zm0-6.18c0 .82-.67 1.5-1.5 1.5s-1.5-.68-1.5-1.5c0-.84.67-1.5 1.5-1.5s1.5.66 1.5 1.5zm0-6.2c0 .84-.67 1.5-1.5 1.5s-1.5-.66-1.5-1.5c0-.82.67-1.5 1.5-1.5s1.5.68 1.5 1.5zm0-6.17c0 .83-.67 1.5-1.5 1.5s-1.5-.67-1.5-1.5.67-1.5 1.5-1.5 1.5.67 1.5 1.5zm0-6.18c0 .82-.67 1.5-1.5 1.5s-1.5-.68-1.5-1.5c0-.83.67-1.5 1.5-1.5s1.5.67 1.5 1.5zm0-6.2c0 .84-.67 1.5-1.5 1.5s-1.5-.66-1.5-1.5c0-.8.67-1.5 1.5-1.5s1.5.7 1.5 1.5zm0-6.17c0 .83-.67 1.5-1.5 1.5s-1.5-.67-1.5-1.5.67-1.5 1.5-1.5 1.5.67 1.5 1.5zm0-6.18c0 .83-.67 1.5-1.5 1.5s-1.5-.67-1.5-1.5.67-1.5 1.5-1.5 1.5.67 1.5 1.5z" fill="#7ab648"/><use xlink:href="#e" transform="matrix(1,0,0,1,-35,425) translate(11.574999999999989 38.4625)"/><use xlink:href="#f" transform="matrix(1,0,0,1,-35,425) translate(65.475 38.4625)"/><path d="M-40 566c0-3.3 2.7-6 6-6h168c3.3 0 6 2.7 6 6v68c0 3.3-2.7 6-6 6H-34c-3.3 0-6-2.7-6-6z" fill="#c7e8ac"/><path d="M-38.5 566c0 .83-.67 1.5-1.5 1.5s-1.5-.67-1.5-1.5.67-1.5 1.5-1.5 1.5.67 1.5 1.5zm1.9-4.1c0 .82-.68 1.5-1.5 1.5-.83 0-1.5-.68-1.5-1.5 0-.83.67-1.5 1.5-1.5.82 0 1.5.67 1.5 1.5zm4.1-1.9c0 .83-.67 1.5-1.5 1.5s-1.5-.67-1.5-1.5.67-1.5 1.5-1.5 1.5.67 1.5 1.5zm6 0c0 .83-.67 1.5-1.5 1.5s-1.5-.67-1.5-1.5.67-1.5 1.5-1.5 1.5.67 1.5 1.5zm6 0c0 .83-.67 1.5-1.5 1.5s-1.5-.67-1.5-1.5.67-1.5 1.5-1.5 1.5.67 1.5 1.5zm6 0c0 .83-.67 1.5-1.5 1.5s-1.5-.67-1.5-1.5.67-1.5 1.5-1.5 1.5.67 1.5 1.5zm6 0c0 .83-.67 1.5-1.5 1.5s-1.5-.67-1.5-1.5.67-1.5 1.5-1.5 1.5.67 1.5 1.5zm6 0c0 .83-.67 1.5-1.5 1.5s-1.5-.67-1.5-1.5.67-1.5 1.5-1.5 1.5.67 1.5 1.5zm6 0c0 .83-.67 1.5-1.5 1.5S.5 560.83.5 560s.67-1.5 1.5-1.5 1.5.67 1.5 1.5zm6 0c0 .83-.67 1.5-1.5 1.5s-1.5-.67-1.5-1.5.67-1.5 1.5-1.5 1.5.67 1.5 1.5zm6 0c0 .83-.67 1.5-1.5 1.5s-1.5-.67-1.5-1.5.67-1.5 1.5-1.5 1.5.67 1.5 1.5zm6 0c0 .83-.67 1.5-1.5 1.5s-1.5-.67-1.5-1.5.67-1.5 1.5-1.5 1.5.67 1.5 1.5zm6 0c0 .83-.67 1.5-1.5 1.5s-1.5-.67-1.5-1.5.67-1.5 1.5-1.5 1.5.67 1.5 1.5zm6 0c0 .83-.67 1.5-1.5 1.5s-1.5-.67-1.5-1.5.67-1.5 1.5-1.5 1.5.67 1.5 1.5zm6 0c0 .83-.67 1.5-1.5 1.5s-1.5-.67-1.5-1.5.67-1.5 1.5-1.5 1.5.67 1.5 1.5zm6 0c0 .83-.67 1.5-1.5 1.5s-1.5-.67-1.5-1.5.67-1.5 1.5-1.5 1.5.67 1.5 1.5zm6 0c0 .83-.67 1.5-1.5 1.5s-1.5-.67-1.5-1.5.67-1.5 1.5-1.5 1.5.67 1.5 1.5zm6 0c0 .83-.67 1.5-1.5 1.5s-1.5-.67-1.5-1.5.67-1.5 1.5-1.5 1.5.67 1.5 1.5zm6 0c0 .83-.67 1.5-1.5 1.5s-1.5-.67-1.5-1.5.67-1.5 1.5-1.5 1.5.67 1.5 1.5zm6 0c0 .83-.67 1.5-1.5 1.5s-1.5-.67-1.5-1.5.67-1.5 1.5-1.5 1.5.67 1.5 1.5zm6 0c0 .83-.67 1.5-1.5 1.5s-1.5-.67-1.5-1.5.67-1.5 1.5-1.5 1.5.67 1.5 1.5zm6 0c0 .83-.67 1.5-1.5 1.5s-1.5-.67-1.5-1.5.67-1.5 1.5-1.5 1.5.67 1.5 1.5zm6 0c0 .83-.67 1.5-1.5 1.5s-1.5-.67-1.5-1.5.67-1.5 1.5-1.5 1.5.67 1.5 1.5zm6 0c0 .83-.67 1.5-1.5 1.5s-1.5-.67-1.5-1.5.67-1.5 1.5-1.5 1.5.67 1.5 1.5zm6 0c0 .83-.67 1.5-1.5 1.5s-1.5-.67-1.5-1.5.67-1.5 1.5-1.5 1.5.67 1.5 1.5zm6 0c0 .83-.67 1.5-1.5 1.5s-1.5-.67-1.5-1.5.67-1.5 1.5-1.5 1.5.67 1.5 1.5zm6 0c0 .83-.67 1.5-1.5 1.5s-1.5-.67-1.5-1.5.67-1.5 1.5-1.5 1.5.67 1.5 1.5zm6 0c0 .83-.67 1.5-1.5 1.5s-1.5-.67-1.5-1.5.67-1.5 1.5-1.5 1.5.67 1.5 1.5zm6 0c0 .83-.67 1.5-1.5 1.5s-1.5-.67-1.5-1.5.67-1.5 1.5-1.5 1.5.67 1.5 1.5zm6 0c0 .83-.67 1.5-1.5 1.5s-1.5-.67-1.5-1.5.67-1.5 1.5-1.5 1.5.67 1.5 1.5zm6 0c0 .83-.67 1.5-1.5 1.5s-1.5-.67-1.5-1.5.67-1.5 1.5-1.5 1.5.67 1.5 1.5zm4.1 1.9c0 .82-.67 1.5-1.5 1.5-.82 0-1.5-.68-1.5-1.5 0-.83.68-1.5 1.5-1.5.83 0 1.5.67 1.5 1.5zm1.9 4.1c0 .83-.67 1.5-1.5 1.5s-1.5-.67-1.5-1.5.67-1.5 1.5-1.5 1.5.67 1.5 1.5zm0 6.18c0 .83-.67 1.5-1.5 1.5s-1.5-.67-1.5-1.5.67-1.5 1.5-1.5 1.5.67 1.5 1.5zm0 6.18c0 .83-.67 1.5-1.5 1.5s-1.5-.67-1.5-1.5c0-.82.67-1.5 1.5-1.5s1.5.68 1.5 1.5zm0 6.2c0 .8-.67 1.5-1.5 1.5s-1.5-.7-1.5-1.5c0-.84.67-1.5 1.5-1.5s1.5.66 1.5 1.5zm0 6.17c0 .83-.67 1.5-1.5 1.5s-1.5-.67-1.5-1.5.67-1.5 1.5-1.5 1.5.67 1.5 1.5zm0 6.18c0 .84-.67 1.5-1.5 1.5s-1.5-.66-1.5-1.5c0-.82.67-1.5 1.5-1.5s1.5.68 1.5 1.5zm0 6.2c0 .82-.67 1.5-1.5 1.5s-1.5-.68-1.5-1.5c0-.84.67-1.5 1.5-1.5s1.5.66 1.5 1.5zm0 6.17c0 .83-.67 1.5-1.5 1.5s-1.5-.67-1.5-1.5.67-1.5 1.5-1.5 1.5.67 1.5 1.5zm0 6.18c0 .83-.67 1.5-1.5 1.5s-1.5-.67-1.5-1.5c0-.82.67-1.5 1.5-1.5s1.5.68 1.5 1.5zm0 6.2c0 .8-.67 1.5-1.5 1.5s-1.5-.7-1.5-1.5c0-.84.67-1.5 1.5-1.5s1.5.66 1.5 1.5zm0 6.17c0 .83-.67 1.5-1.5 1.5s-1.5-.67-1.5-1.5.67-1.5 1.5-1.5 1.5.67 1.5 1.5zm0 6.18c0 .83-.67 1.5-1.5 1.5s-1.5-.67-1.5-1.5.67-1.5 1.5-1.5 1.5.67 1.5 1.5zm-1.9 4.1c0 .83-.67 1.5-1.5 1.5-.82 0-1.5-.67-1.5-1.5 0-.82.68-1.5 1.5-1.5.83 0 1.5.68 1.5 1.5zm-4.1 1.9c0 .83-.67 1.5-1.5 1.5s-1.5-.67-1.5-1.5.67-1.5 1.5-1.5 1.5.67 1.5 1.5zm-6 0c0 .83-.67 1.5-1.5 1.5s-1.5-.67-1.5-1.5.67-1.5 1.5-1.5 1.5.67 1.5 1.5zm-6 0c0 .83-.67 1.5-1.5 1.5s-1.5-.67-1.5-1.5.67-1.5 1.5-1.5 1.5.67 1.5 1.5zm-6 0c0 .83-.67 1.5-1.5 1.5s-1.5-.67-1.5-1.5.67-1.5 1.5-1.5 1.5.67 1.5 1.5zm-6 0c0 .83-.67 1.5-1.5 1.5s-1.5-.67-1.5-1.5.67-1.5 1.5-1.5 1.5.67 1.5 1.5zm-6 0c0 .83-.67 1.5-1.5 1.5s-1.5-.67-1.5-1.5.67-1.5 1.5-1.5 1.5.67 1.5 1.5zm-6 0c0 .83-.67 1.5-1.5 1.5s-1.5-.67-1.5-1.5.67-1.5 1.5-1.5 1.5.67 1.5 1.5zm-6 0c0 .83-.67 1.5-1.5 1.5s-1.5-.67-1.5-1.5.67-1.5 1.5-1.5 1.5.67 1.5 1.5zm-6 0c0 .83-.67 1.5-1.5 1.5s-1.5-.67-1.5-1.5.67-1.5 1.5-1.5 1.5.67 1.5 1.5zm-6 0c0 .83-.67 1.5-1.5 1.5s-1.5-.67-1.5-1.5.67-1.5 1.5-1.5 1.5.67 1.5 1.5zm-6 0c0 .83-.67 1.5-1.5 1.5s-1.5-.67-1.5-1.5.67-1.5 1.5-1.5 1.5.67 1.5 1.5zm-6 0c0 .83-.67 1.5-1.5 1.5s-1.5-.67-1.5-1.5.67-1.5 1.5-1.5 1.5.67 1.5 1.5zm-6 0c0 .83-.67 1.5-1.5 1.5s-1.5-.67-1.5-1.5.67-1.5 1.5-1.5 1.5.67 1.5 1.5zm-6 0c0 .83-.67 1.5-1.5 1.5s-1.5-.67-1.5-1.5.67-1.5 1.5-1.5 1.5.67 1.5 1.5zm-6 0c0 .83-.67 1.5-1.5 1.5s-1.5-.67-1.5-1.5.67-1.5 1.5-1.5 1.5.67 1.5 1.5zm-6 0c0 .83-.67 1.5-1.5 1.5s-1.5-.67-1.5-1.5.67-1.5 1.5-1.5 1.5.67 1.5 1.5zm-6 0c0 .83-.67 1.5-1.5 1.5s-1.5-.67-1.5-1.5.67-1.5 1.5-1.5 1.5.67 1.5 1.5zm-6 0c0 .83-.67 1.5-1.5 1.5s-1.5-.67-1.5-1.5.67-1.5 1.5-1.5 1.5.67 1.5 1.5zm-6 0c0 .83-.67 1.5-1.5 1.5s-1.5-.67-1.5-1.5.67-1.5 1.5-1.5 1.5.67 1.5 1.5zm-6 0c0 .83-.67 1.5-1.5 1.5s-1.5-.67-1.5-1.5.67-1.5 1.5-1.5 1.5.67 1.5 1.5zm-6 0c0 .83-.67 1.5-1.5 1.5s-1.5-.67-1.5-1.5.67-1.5 1.5-1.5 1.5.67 1.5 1.5zm-6 0c0 .83-.67 1.5-1.5 1.5s-1.5-.67-1.5-1.5.67-1.5 1.5-1.5 1.5.67 1.5 1.5zm-6 0c0 .83-.67 1.5-1.5 1.5S.5 640.83.5 640s.67-1.5 1.5-1.5 1.5.67 1.5 1.5zm-6 0c0 .83-.67 1.5-1.5 1.5s-1.5-.67-1.5-1.5.67-1.5 1.5-1.5 1.5.67 1.5 1.5zm-6 0c0 .83-.67 1.5-1.5 1.5s-1.5-.67-1.5-1.5.67-1.5 1.5-1.5 1.5.67 1.5 1.5zm-6 0c0 .83-.67 1.5-1.5 1.5s-1.5-.67-1.5-1.5.67-1.5 1.5-1.5 1.5.67 1.5 1.5zm-6 0c0 .83-.67 1.5-1.5 1.5s-1.5-.67-1.5-1.5.67-1.5 1.5-1.5 1.5.67 1.5 1.5zm-6 0c0 .83-.67 1.5-1.5 1.5s-1.5-.67-1.5-1.5.67-1.5 1.5-1.5 1.5.67 1.5 1.5zm-6 0c0 .83-.67 1.5-1.5 1.5s-1.5-.67-1.5-1.5.67-1.5 1.5-1.5 1.5.67 1.5 1.5zm-4.1-1.9c0 .83-.68 1.5-1.5 1.5-.83 0-1.5-.67-1.5-1.5 0-.82.67-1.5 1.5-1.5.82 0 1.5.68 1.5 1.5zm-1.9-4.1c0 .83-.67 1.5-1.5 1.5s-1.5-.67-1.5-1.5.67-1.5 1.5-1.5 1.5.67 1.5 1.5zm0-6.18c0 .83-.67 1.5-1.5 1.5s-1.5-.67-1.5-1.5.67-1.5 1.5-1.5 1.5.67 1.5 1.5zm0-6.18c0 .82-.67 1.5-1.5 1.5s-1.5-.68-1.5-1.5c0-.83.67-1.5 1.5-1.5s1.5.67 1.5 1.5zm0-6.2c0 .84-.67 1.5-1.5 1.5s-1.5-.66-1.5-1.5c0-.8.67-1.5 1.5-1.5s1.5.7 1.5 1.5zm0-6.17c0 .83-.67 1.5-1.5 1.5s-1.5-.67-1.5-1.5.67-1.5 1.5-1.5 1.5.67 1.5 1.5zm0-6.18c0 .82-.67 1.5-1.5 1.5s-1.5-.68-1.5-1.5c0-.84.67-1.5 1.5-1.5s1.5.66 1.5 1.5zm0-6.2c0 .84-.67 1.5-1.5 1.5s-1.5-.66-1.5-1.5c0-.82.67-1.5 1.5-1.5s1.5.68 1.5 1.5zm0-6.17c0 .83-.67 1.5-1.5 1.5s-1.5-.67-1.5-1.5.67-1.5 1.5-1.5 1.5.67 1.5 1.5zm0-6.18c0 .82-.67 1.5-1.5 1.5s-1.5-.68-1.5-1.5c0-.83.67-1.5 1.5-1.5s1.5.67 1.5 1.5zm0-6.2c0 .84-.67 1.5-1.5 1.5s-1.5-.66-1.5-1.5c0-.8.67-1.5 1.5-1.5s1.5.7 1.5 1.5zm0-6.17c0 .83-.67 1.5-1.5 1.5s-1.5-.67-1.5-1.5.67-1.5 1.5-1.5 1.5.67 1.5 1.5zm0-6.18c0 .83-.67 1.5-1.5 1.5s-1.5-.67-1.5-1.5.67-1.5 1.5-1.5 1.5.67 1.5 1.5z" fill="#7ab648"/><use xlink:href="#g" transform="matrix(1,0,0,1,-35,565) translate(29.099999999999994 38.4625)"/><path d="M860 166c0-3.3 2.7-6 6-6h188c3.3 0 6 2.7 6 6v68c0 3.3-2.7 6-6 6H866c-3.3 0-6-2.7-6-6z" stroke="#4881b3" stroke-width="3" fill="#f5fbff"/><use xlink:href="#h" transform="matrix(1,0,0,1,872,172) translate(11.924999999999983 31.9)"/><use xlink:href="#i" transform="matrix(1,0,0,1,872,172) translate(76.225 31.9)"/><use xlink:href="#j" transform="matrix(1,0,0,1,872,172) translate(113.175 31.9)"/><path d="M580 166c0-3.3 2.7-6 6-6h188c3.3 0 6 2.7 6 6v68c0 3.3-2.7 6-6 6H586c-3.3 0-6-2.7-6-6z" stroke="#19967d" stroke-width="3" fill="#99d5ca"/><use xlink:href="#k" transform="matrix(1,0,0,1,585,165) translate(79.025 38.4625)"/><path d="M580 286c0-3.3 2.7-6 6-6h188c3.3 0 6 2.7 6 6v68c0 3.3-2.7 6-6 6H586c-3.3 0-6-2.7-6-6z" stroke="#19967d" stroke-width="3" fill="#99d5ca"/><use xlink:href="#l" transform="matrix(1,0,0,1,585,285) translate(23.674999999999983 38.4625)"/><use xlink:href="#m" transform="matrix(1,0,0,1,585,285) translate(88.52499999999999 38.4625)"/><use xlink:href="#n" transform="matrix(1,0,0,1,585,285) translate(122.475 38.4625)"/><path d="M580 426c0-3.3 2.7-6 6-6h188c3.3 0 6 2.7 6 6v68c0 3.3-2.7 6-6 6H586c-3.3 0-6-2.7-6-6z" stroke="#19967d" stroke-width="3" fill="#99d5ca"/><use xlink:href="#l" transform="matrix(1,0,0,1,585,425) translate(13.674999999999983 38.4625)"/><use xlink:href="#o" transform="matrix(1,0,0,1,585,425) translate(78.52499999999999 38.4625)"/><use xlink:href="#n" transform="matrix(1,0,0,1,585,425) translate(132.475 38.4625)"/><path d="M361 313.87l.7 2.64 1.8 1.8 2.63.7h38.9v2h-39.16l-3.42-.92-2.53-2.53-.92-3.42V242.5h2M560 319v2H454.98v-2" fill="#ef8d22"/><path d="M361 242.53h-2v-1.03h2M575.26 320L561 324.64v-9.28z" fill="#ef8d22"/><path d="M578.5 320l-18.5 6v-12m2 9.26l10.03-3.26-10.03-3.26" fill="#ef8d22"/><use xlink:href="#p" transform="matrix(1,0,0,1,405.025,309.2) translate(0 14.4)"/><path d="M680 846c0-3.3 2.7-6 6-6h188c3.3 0 6 2.7 6 6v68c0 3.3-2.7 6-6 6H686c-3.3 0-6-2.7-6-6z" stroke="#4881b3" stroke-width="3" fill="#f5fbff"/><use xlink:href="#q" transform="matrix(1,0,0,1,692,852) translate(42.574999999999996 31.9)"/><path d="M782.5 200H840" stroke="#224c72" stroke-width="2" fill="none"/><path d="M782.53 201h-1.03v-2h1.03" fill="#224c72"/><path d="M855.26 200L841 204.64v-9.28z" stroke="#224c72" stroke-width="2" fill="#224c72"/><path d="M495.02 201H462.5v-2h32.52m64.98 2h-15.02v-2H560" fill="#ef8d22"/><path d="M462.53 201h-1.03v-2h1.03M575.26 200L561 204.64v-9.28z" fill="#ef8d22"/><path d="M578.5 200l-18.5 6v-12m2 9.26l10.03-3.26-10.03-3.26" fill="#ef8d22"/><use xlink:href="#p" transform="matrix(1,0,0,1,495.025,189.2) translate(0 14.4)"/><path d="M960 242.5V314c0 3.3-2.7 6-6 6H800" stroke="#224c72" stroke-width="2" fill="none"/><path d="M961 242.53h-2v-1.03h2" fill="#224c72"/><path d="M784.74 320l14.26-4.64v9.28z" stroke="#224c72" stroke-width="2" fill="#224c72"/><path d="M681 379.2h-2v-16.7h2" fill="#224c72"/><path d="M681 362.53h-2v-1.03h2M680 415.26L675.36 401h9.28z" fill="#224c72"/><path d="M680 418.5l-5.75-17.7h11.5m-9 1.2l3.25 10.03 3.26-10.03" fill="#224c72"/><use xlink:href="#r" transform="matrix(1,0,0,1,630.05,379.2) translate(0 14.4)"/><path d="M774.13 599l3.42.92 2.53 2.53.92 3.42V680h-2v-73.87l-.7-2.64-1.8-1.8-2.63-.7h-15.42v-2m-76.74-2.5l1.8 1.8 2.63.7h15.42v2h-15.68l-3.42-.92-2.53-2.53-.92-3.42V502.5h2v91.37" fill="#224c72"/><path d="M681 502.53h-2v-1.03h2M780 695.26L775.36 681h9.28z" fill="#224c72"/><path d="M780 698.5l-6-18.5h12m-9.26 2l3.26 10.03 3.26-10.03" fill="#224c72"/><use xlink:href="#s" transform="matrix(1,0,0,1,701.55,589.2) translate(0 14.4)"/><path d="M260 426c0-3.3 2.7-6 6-6h188c3.3 0 6 2.7 6 6v68c0 3.3-2.7 6-6 6H266c-3.3 0-6-2.7-6-6z" stroke="#19967d" stroke-width="3" fill="#99d5ca"/><use xlink:href="#t" transform="matrix(1,0,0,1,265,425) translate(47.525 27.525)"/><use xlink:href="#u" transform="matrix(1,0,0,1,265,425) translate(43.62499999999999 49.125)"/><path d="M142.5 460h10.83m10.84 0h21.66m10.84 0h21.66m10.83 0H240" stroke="#224c72" stroke-width="2" fill="none"/><path d="M142.53 461h-1.03v-2h1.03" fill="#224c72"/><path d="M255.26 460L241 464.64v-9.28z" stroke="#224c72" stroke-width="2" fill="#224c72"/><path d="M151.08 461h-8.58v-2h8.58m25.75 2h-17.16v-2h17.16m24.17-4.87l-.92 3.42-2.53 2.53-3.42.92h-8.7v-2h8.44l2.64-.7 1.8-1.8.7-2.63v-10.2h2m0-10.34h-2v-20.66h2m0-10.34h-2v-20.66h2m0-10.34h-2v-20.66h2m0-41.34h-2v-20.66h2m0-10.34h-2v-20.66h2m0-10.34h-2v-20.66h2M217.33 201h-11.2l-2.64.7-1.8 1.8-.7 2.63v10.2h-2v-10.46l.92-3.42 2.53-2.53 3.42-.92h11.46m22.67 2h-11.33v-2H240" fill="#224c72"/><path d="M142.53 461h-1.03v-2h1.03M255.26 200L241 204.64v-9.28z" fill="#224c72"/><path d="M258.5 200l-18.5 6v-12m2 9.26l10.03-3.26-10.03-3.26" fill="#224c72"/><use xlink:href="#v" transform="matrix(1,0,0,1,160.5,319.2) translate(0 14.4)"/><path d="M260 566c0-3.3 2.7-6 6-6h188c3.3 0 6 2.7 6 6v68c0 3.3-2.7 6-6 6H266c-3.3 0-6-2.7-6-6z" stroke="#19967d" stroke-width="3" fill="#99d5ca"/><use xlink:href="#w" transform="matrix(1,0,0,1,265,565) translate(3.1499999999999915 38.4625)"/><use xlink:href="#u" transform="matrix(1,0,0,1,265,565) translate(84.1 38.4625)"/><path d="M142.5 600h10.83m10.84 0h21.66m10.84 0h21.66m10.83 0H240" stroke="#224c72" stroke-width="2" fill="none"/><path d="M142.53 601h-1.03v-2h1.03" fill="#224c72"/><path d="M255.26 600L241 604.64v-9.28z" stroke="#224c72" stroke-width="2" fill="#224c72"/><path d="M777.55 599.92l2.53 2.53.92 3.42V680h-2v-73.87l-.7-2.64-1.8-1.8-2.63-.7h-15.42v-2h15.68m-145.68 2v-2h73.1v2m-239.05 0v-2h109.05v2" fill="#224c72"/><path d="M462.53 601h-1.03v-2h1.03M780 695.26L775.36 681h9.28z" fill="#224c72"/><path d="M780 698.5l-6-18.5h12m-9.26 2l3.26 10.03 3.26-10.03M961 594.13l-.92 3.42-2.53 2.53-3.42.92h-168l-2.64.7-1.8 1.8-.7 2.63V680h-2v-74.13l.92-3.42 2.53-2.53 3.42-.92h168l2.64-.7 1.8-1.8.7-2.63V242.5h2" fill="#224c72"/><path d="M961 242.53h-2v-1.03h2M780 695.26L775.36 681h9.28z" fill="#224c72"/><path d="M780 698.5l-6-18.5h12m-9.26 2l3.26 10.03 3.26-10.03" fill="#224c72"/><path d="M1000 846c0-3.3 2.7-6 6-6h188c3.3 0 6 2.7 6 6v68c0 3.3-2.7 6-6 6h-188c-3.3 0-6-2.7-6-6z" stroke="#19967d" stroke-width="3" fill="#99d5ca"/><use xlink:href="#x" transform="matrix(1,0,0,1,1005,845) translate(29.099999999999994 27.525)"/><use xlink:href="#y" transform="matrix(1,0,0,1,1005,845) translate(75.05 27.525)"/><use xlink:href="#z" transform="matrix(1,0,0,1,1005,845) translate(65.05 49.125)"/><path d="M908.5 881h-26v-2h26m71.5 2h-8.5v-2h8.5" fill="#224c72"/><path d="M882.53 881h-1.03v-2h1.03M995.26 880L981 884.64v-9.28z" fill="#224c72"/><path d="M998.5 880l-18.5 6v-12m2 9.26l10.03-3.26-10.03-3.26" fill="#224c72"/><use xlink:href="#A" transform="matrix(1,0,0,1,908.5,869.2) translate(0 14.4)"/><path d="M-40 926c0-3.3 2.7-6 6-6h153c3.3 0 6 2.7 6 6v28c0 3.3-2.7 6-6 6H-34c-3.3 0-6-2.7-6-6z" stroke="#19967d" stroke-width="3" fill="#99d5ca"/><use xlink:href="#B" transform="matrix(1,0,0,1,-35,925) translate(26.075000000000003 18.15)"/><use xlink:href="#z" transform="matrix(1,0,0,1,-35,925) translate(69.025 18.15)"/><path d="M-40 986c0-3.3 2.7-6 6-6h153c3.3 0 6 2.7 6 6v28c0 3.3-2.7 6-6 6H-34c-3.3 0-6-2.7-6-6z" stroke="#4881b3" stroke-width="3" fill="#f5fbff"/><use xlink:href="#C" transform="matrix(1,0,0,1,-28,992) translate(35.05 14.4)"/><path d="M206.05 941H166v-2h40.05m120.45 2h-22.55v-2h22.55" fill="#ef8d22"/><path d="M166.03 941H165v-2h1.03M341.76 940l-14.26 4.64v-9.28z" fill="#ef8d22"/><path d="M345 940l-18.5 6v-12m2 9.26l10.03-3.26-10.03-3.26" fill="#ef8d22"/><use xlink:href="#D" transform="matrix(1,0,0,1,206.05,929.2) translate(0 14.4)"/><use xlink:href="#E" transform="matrix(1,0,0,1,206.05,929.2) translate(63.900000000000006 14.4)"/><path d="M196.55 1001H166v-2h30.55m129.95 2h-13.05v-2h13.05" fill="#4881b3"/><path d="M166.03 1001H165v-2h1.03M341.76 1000l-14.26 4.64v-9.28z" fill="#4881b3"/><path d="M345 1000l-18.5 6v-12m2 9.26l10.03-3.26-10.03-3.26" fill="#4881b3"/><use xlink:href="#F" transform="matrix(1,0,0,1,196.55,989.2) translate(0 14.4)"/><use xlink:href="#E" transform="matrix(1,0,0,1,196.55,989.2) translate(82.9 14.4)"/><path d="M-40 866c0-3.3 2.7-6 6-6h153c3.3 0 6 2.7 6 6v28c0 3.3-2.7 6-6 6H-34c-3.3 0-6-2.7-6-6z" fill="#c7e8ac"/><path d="M-38.5 866c0 .83-.67 1.5-1.5 1.5s-1.5-.67-1.5-1.5.67-1.5 1.5-1.5 1.5.67 1.5 1.5zm1.9-4.1c0 .82-.68 1.5-1.5 1.5-.83 0-1.5-.68-1.5-1.5 0-.83.67-1.5 1.5-1.5.82 0 1.5.67 1.5 1.5zm4.1-1.9c0 .83-.67 1.5-1.5 1.5s-1.5-.67-1.5-1.5.67-1.5 1.5-1.5 1.5.67 1.5 1.5zm5.88 0c0 .83-.67 1.5-1.5 1.5-.82 0-1.5-.67-1.5-1.5s.68-1.5 1.5-1.5c.83 0 1.5.67 1.5 1.5zm5.9 0c0 .83-.68 1.5-1.5 1.5-.84 0-1.5-.67-1.5-1.5s.66-1.5 1.5-1.5c.82 0 1.5.67 1.5 1.5zm5.87 0c0 .83-.67 1.5-1.5 1.5-.82 0-1.5-.67-1.5-1.5s.68-1.5 1.5-1.5c.83 0 1.5.67 1.5 1.5zm5.9 0c0 .83-.68 1.5-1.5 1.5-.84 0-1.5-.67-1.5-1.5s.66-1.5 1.5-1.5c.82 0 1.5.67 1.5 1.5zm5.87 0c0 .83-.67 1.5-1.5 1.5s-1.5-.67-1.5-1.5.67-1.5 1.5-1.5 1.5.67 1.5 1.5zm5.9 0c0 .83-.68 1.5-1.5 1.5-.84 0-1.5-.67-1.5-1.5s.66-1.5 1.5-1.5c.82 0 1.5.67 1.5 1.5zm5.87 0c0 .83-.68 1.5-1.5 1.5-.84 0-1.5-.67-1.5-1.5s.66-1.5 1.5-1.5c.82 0 1.5.67 1.5 1.5zm5.88 0c0 .83-.67 1.5-1.5 1.5s-1.5-.67-1.5-1.5.67-1.5 1.5-1.5 1.5.67 1.5 1.5zm5.88 0c0 .83-.67 1.5-1.5 1.5s-1.5-.67-1.5-1.5.67-1.5 1.5-1.5 1.5.67 1.5 1.5zm5.9 0c0 .83-.7 1.5-1.5 1.5-.84 0-1.5-.67-1.5-1.5s.66-1.5 1.5-1.5c.8 0 1.5.67 1.5 1.5zm5.87 0c0 .83-.67 1.5-1.5 1.5s-1.5-.67-1.5-1.5.67-1.5 1.5-1.5 1.5.67 1.5 1.5zm5.9 0c0 .83-.7 1.5-1.5 1.5-.84 0-1.5-.67-1.5-1.5s.66-1.5 1.5-1.5c.8 0 1.5.67 1.5 1.5zm5.87 0c0 .83-.67 1.5-1.5 1.5s-1.5-.67-1.5-1.5.67-1.5 1.5-1.5 1.5.67 1.5 1.5zm5.88 0c0 .83-.67 1.5-1.5 1.5-.82 0-1.5-.67-1.5-1.5s.68-1.5 1.5-1.5c.83 0 1.5.67 1.5 1.5zm5.9 0c0 .83-.68 1.5-1.5 1.5-.84 0-1.5-.67-1.5-1.5s.66-1.5 1.5-1.5c.82 0 1.5.67 1.5 1.5zm5.87 0c0 .83-.67 1.5-1.5 1.5-.82 0-1.5-.67-1.5-1.5s.68-1.5 1.5-1.5c.83 0 1.5.67 1.5 1.5zm5.9 0c0 .83-.68 1.5-1.5 1.5-.84 0-1.5-.67-1.5-1.5s.66-1.5 1.5-1.5c.82 0 1.5.67 1.5 1.5zm5.87 0c0 .83-.67 1.5-1.5 1.5s-1.5-.67-1.5-1.5.67-1.5 1.5-1.5 1.5.67 1.5 1.5zm5.9 0c0 .83-.68 1.5-1.5 1.5-.84 0-1.5-.67-1.5-1.5s.66-1.5 1.5-1.5c.82 0 1.5.67 1.5 1.5zm5.87 0c0 .83-.68 1.5-1.5 1.5-.84 0-1.5-.67-1.5-1.5s.66-1.5 1.5-1.5c.82 0 1.5.67 1.5 1.5zm5.88 0c0 .83-.67 1.5-1.5 1.5s-1.5-.67-1.5-1.5.67-1.5 1.5-1.5 1.5.67 1.5 1.5zm5.88 0c0 .83-.67 1.5-1.5 1.5s-1.5-.67-1.5-1.5.67-1.5 1.5-1.5 1.5.67 1.5 1.5zm5.9 0c0 .83-.7 1.5-1.5 1.5-.84 0-1.5-.67-1.5-1.5s.66-1.5 1.5-1.5c.8 0 1.5.67 1.5 1.5zm5.87 0c0 .83-.67 1.5-1.5 1.5s-1.5-.67-1.5-1.5.67-1.5 1.5-1.5 1.5.67 1.5 1.5zm5.9 0c0 .83-.7 1.5-1.5 1.5-.84 0-1.5-.67-1.5-1.5s.66-1.5 1.5-1.5c.8 0 1.5.67 1.5 1.5zm5.87 0c0 .83-.67 1.5-1.5 1.5s-1.5-.67-1.5-1.5.67-1.5 1.5-1.5 1.5.67 1.5 1.5zm4.1 1.9c0 .82-.67 1.5-1.5 1.5-.82 0-1.5-.68-1.5-1.5 0-.83.68-1.5 1.5-1.5.83 0 1.5.67 1.5 1.5zm1.9 4.1c0 .83-.67 1.5-1.5 1.5s-1.5-.67-1.5-1.5.67-1.5 1.5-1.5 1.5.67 1.5 1.5zm0 5.6c0 .83-.67 1.5-1.5 1.5s-1.5-.67-1.5-1.5.67-1.5 1.5-1.5 1.5.67 1.5 1.5zm0 5.6c0 .83-.67 1.5-1.5 1.5s-1.5-.67-1.5-1.5.67-1.5 1.5-1.5 1.5.67 1.5 1.5zm0 5.6c0 .83-.67 1.5-1.5 1.5s-1.5-.67-1.5-1.5.67-1.5 1.5-1.5 1.5.67 1.5 1.5zm0 5.6c0 .83-.67 1.5-1.5 1.5s-1.5-.67-1.5-1.5.67-1.5 1.5-1.5 1.5.67 1.5 1.5zm0 5.6c0 .83-.67 1.5-1.5 1.5s-1.5-.67-1.5-1.5.67-1.5 1.5-1.5 1.5.67 1.5 1.5zm-1.9 4.1c0 .83-.67 1.5-1.5 1.5-.82 0-1.5-.67-1.5-1.5 0-.82.68-1.5 1.5-1.5.83 0 1.5.68 1.5 1.5zm-4.1 1.9c0 .83-.67 1.5-1.5 1.5s-1.5-.67-1.5-1.5.67-1.5 1.5-1.5 1.5.67 1.5 1.5zm-5.88 0c0 .83-.68 1.5-1.5 1.5-.83 0-1.5-.67-1.5-1.5s.67-1.5 1.5-1.5c.82 0 1.5.67 1.5 1.5zm-5.9 0c0 .83-.66 1.5-1.5 1.5-.82 0-1.5-.67-1.5-1.5s.68-1.5 1.5-1.5c.84 0 1.5.67 1.5 1.5zm-5.87 0c0 .83-.68 1.5-1.5 1.5-.83 0-1.5-.67-1.5-1.5s.67-1.5 1.5-1.5c.82 0 1.5.67 1.5 1.5zm-5.9 0c0 .83-.66 1.5-1.5 1.5-.82 0-1.5-.67-1.5-1.5s.68-1.5 1.5-1.5c.84 0 1.5.67 1.5 1.5zm-5.87 0c0 .83-.67 1.5-1.5 1.5s-1.5-.67-1.5-1.5.67-1.5 1.5-1.5 1.5.67 1.5 1.5zm-5.9 0c0 .83-.66 1.5-1.5 1.5-.82 0-1.5-.67-1.5-1.5s.68-1.5 1.5-1.5c.84 0 1.5.67 1.5 1.5zm-5.87 0c0 .83-.66 1.5-1.5 1.5-.82 0-1.5-.67-1.5-1.5s.68-1.5 1.5-1.5c.84 0 1.5.67 1.5 1.5zm-5.88 0c0 .83-.67 1.5-1.5 1.5s-1.5-.67-1.5-1.5.67-1.5 1.5-1.5 1.5.67 1.5 1.5zm-5.88 0c0 .83-.67 1.5-1.5 1.5s-1.5-.67-1.5-1.5.67-1.5 1.5-1.5 1.5.67 1.5 1.5zm-5.9 0c0 .83-.66 1.5-1.5 1.5-.8 0-1.5-.67-1.5-1.5s.7-1.5 1.5-1.5c.84 0 1.5.67 1.5 1.5zm-5.87 0c0 .83-.67 1.5-1.5 1.5s-1.5-.67-1.5-1.5.67-1.5 1.5-1.5 1.5.67 1.5 1.5zm-5.9 0c0 .83-.66 1.5-1.5 1.5-.8 0-1.5-.67-1.5-1.5s.7-1.5 1.5-1.5c.84 0 1.5.67 1.5 1.5zM44 900c0 .83-.67 1.5-1.5 1.5s-1.5-.67-1.5-1.5.67-1.5 1.5-1.5 1.5.67 1.5 1.5zm-5.88 0c0 .83-.68 1.5-1.5 1.5-.83 0-1.5-.67-1.5-1.5s.67-1.5 1.5-1.5c.82 0 1.5.67 1.5 1.5zm-5.9 0c0 .83-.66 1.5-1.5 1.5-.82 0-1.5-.67-1.5-1.5s.68-1.5 1.5-1.5c.84 0 1.5.67 1.5 1.5zm-5.87 0c0 .83-.68 1.5-1.5 1.5-.83 0-1.5-.67-1.5-1.5s.67-1.5 1.5-1.5c.82 0 1.5.67 1.5 1.5zm-5.9 0c0 .83-.66 1.5-1.5 1.5-.82 0-1.5-.67-1.5-1.5s.68-1.5 1.5-1.5c.84 0 1.5.67 1.5 1.5zm-5.87 0c0 .83-.67 1.5-1.5 1.5s-1.5-.67-1.5-1.5.67-1.5 1.5-1.5 1.5.67 1.5 1.5zm-5.9 0c0 .83-.66 1.5-1.5 1.5-.82 0-1.5-.67-1.5-1.5s.68-1.5 1.5-1.5c.84 0 1.5.67 1.5 1.5zm-5.87 0c0 .83-.66 1.5-1.5 1.5-.82 0-1.5-.67-1.5-1.5s.68-1.5 1.5-1.5c.84 0 1.5.67 1.5 1.5zm-5.88 0c0 .83-.67 1.5-1.5 1.5s-1.5-.67-1.5-1.5.67-1.5 1.5-1.5 1.5.67 1.5 1.5zm-5.88 0c0 .83-.67 1.5-1.5 1.5s-1.5-.67-1.5-1.5.67-1.5 1.5-1.5 1.5.67 1.5 1.5zm-5.9 0c0 .83-.66 1.5-1.5 1.5-.8 0-1.5-.67-1.5-1.5s.7-1.5 1.5-1.5c.84 0 1.5.67 1.5 1.5zm-5.87 0c0 .83-.67 1.5-1.5 1.5s-1.5-.67-1.5-1.5.67-1.5 1.5-1.5 1.5.67 1.5 1.5zm-5.9 0c0 .83-.66 1.5-1.5 1.5-.8 0-1.5-.67-1.5-1.5s.7-1.5 1.5-1.5c.84 0 1.5.67 1.5 1.5zm-5.87 0c0 .83-.67 1.5-1.5 1.5s-1.5-.67-1.5-1.5.67-1.5 1.5-1.5 1.5.67 1.5 1.5zm-4.1-1.9c0 .83-.68 1.5-1.5 1.5-.83 0-1.5-.67-1.5-1.5 0-.82.67-1.5 1.5-1.5.82 0 1.5.68 1.5 1.5zm-1.9-4.1c0 .83-.67 1.5-1.5 1.5s-1.5-.67-1.5-1.5.67-1.5 1.5-1.5 1.5.67 1.5 1.5zm0-5.6c0 .83-.67 1.5-1.5 1.5s-1.5-.67-1.5-1.5.67-1.5 1.5-1.5 1.5.67 1.5 1.5zm0-5.6c0 .83-.67 1.5-1.5 1.5s-1.5-.67-1.5-1.5.67-1.5 1.5-1.5 1.5.67 1.5 1.5zm0-5.6c0 .83-.67 1.5-1.5 1.5s-1.5-.67-1.5-1.5.67-1.5 1.5-1.5 1.5.67 1.5 1.5zm0-5.6c0 .83-.67 1.5-1.5 1.5s-1.5-.67-1.5-1.5.67-1.5 1.5-1.5 1.5.67 1.5 1.5z" fill="#7ab648"/><use xlink:href="#G" transform="matrix(1,0,0,1,-35,865) translate(37.5 18.15)"/><use xlink:href="#H" transform="matrix(1,0,0,1,-35,865) translate(82.5 18.15)"/><path d="M774.13 599l3.42.92 2.53 2.53.92 3.42V680h-2v-73.87l-.7-2.64-1.8-1.8-2.63-.7h-15.42v-2m-56.9 2h-73.1v-2h73.1M510.08 462.45l.92 3.42v128l.7 2.64 1.8 1.8 2.63.7h55.42v2h-55.68l-3.42-.92-2.53-2.53-.92-3.42v-128l-.7-2.64-1.8-1.8-2.63-.7H462.5v-2h41.63l3.42.92" fill="#224c72"/><path d="M462.53 461h-1.03v-2h1.03M780 695.26L775.36 681h9.28z" fill="#224c72"/><path d="M780 698.5l-6-18.5h12m-9.26 2l3.26 10.03 3.26-10.03" fill="#224c72"/><use xlink:href="#s" transform="matrix(1,0,0,1,571.55,589.2) translate(0 14.4)"/><path d="M-40 706c0-3.3 2.7-6 6-6h168c3.3 0 6 2.7 6 6v68c0 3.3-2.7 6-6 6H-34c-3.3 0-6-2.7-6-6z" fill="#c7e8ac"/><path d="M-38.5 706c0 .83-.67 1.5-1.5 1.5s-1.5-.67-1.5-1.5.67-1.5 1.5-1.5 1.5.67 1.5 1.5zm1.9-4.1c0 .82-.68 1.5-1.5 1.5-.83 0-1.5-.68-1.5-1.5 0-.83.67-1.5 1.5-1.5.82 0 1.5.67 1.5 1.5zm4.1-1.9c0 .83-.67 1.5-1.5 1.5s-1.5-.67-1.5-1.5.67-1.5 1.5-1.5 1.5.67 1.5 1.5zm6 0c0 .83-.67 1.5-1.5 1.5s-1.5-.67-1.5-1.5.67-1.5 1.5-1.5 1.5.67 1.5 1.5zm6 0c0 .83-.67 1.5-1.5 1.5s-1.5-.67-1.5-1.5.67-1.5 1.5-1.5 1.5.67 1.5 1.5zm6 0c0 .83-.67 1.5-1.5 1.5s-1.5-.67-1.5-1.5.67-1.5 1.5-1.5 1.5.67 1.5 1.5zm6 0c0 .83-.67 1.5-1.5 1.5s-1.5-.67-1.5-1.5.67-1.5 1.5-1.5 1.5.67 1.5 1.5zm6 0c0 .83-.67 1.5-1.5 1.5s-1.5-.67-1.5-1.5.67-1.5 1.5-1.5 1.5.67 1.5 1.5zm6 0c0 .83-.67 1.5-1.5 1.5S.5 700.83.5 700s.67-1.5 1.5-1.5 1.5.67 1.5 1.5zm6 0c0 .83-.67 1.5-1.5 1.5s-1.5-.67-1.5-1.5.67-1.5 1.5-1.5 1.5.67 1.5 1.5zm6 0c0 .83-.67 1.5-1.5 1.5s-1.5-.67-1.5-1.5.67-1.5 1.5-1.5 1.5.67 1.5 1.5zm6 0c0 .83-.67 1.5-1.5 1.5s-1.5-.67-1.5-1.5.67-1.5 1.5-1.5 1.5.67 1.5 1.5zm6 0c0 .83-.67 1.5-1.5 1.5s-1.5-.67-1.5-1.5.67-1.5 1.5-1.5 1.5.67 1.5 1.5zm6 0c0 .83-.67 1.5-1.5 1.5s-1.5-.67-1.5-1.5.67-1.5 1.5-1.5 1.5.67 1.5 1.5zm6 0c0 .83-.67 1.5-1.5 1.5s-1.5-.67-1.5-1.5.67-1.5 1.5-1.5 1.5.67 1.5 1.5zm6 0c0 .83-.67 1.5-1.5 1.5s-1.5-.67-1.5-1.5.67-1.5 1.5-1.5 1.5.67 1.5 1.5zm6 0c0 .83-.67 1.5-1.5 1.5s-1.5-.67-1.5-1.5.67-1.5 1.5-1.5 1.5.67 1.5 1.5zm6 0c0 .83-.67 1.5-1.5 1.5s-1.5-.67-1.5-1.5.67-1.5 1.5-1.5 1.5.67 1.5 1.5zm6 0c0 .83-.67 1.5-1.5 1.5s-1.5-.67-1.5-1.5.67-1.5 1.5-1.5 1.5.67 1.5 1.5zm6 0c0 .83-.67 1.5-1.5 1.5s-1.5-.67-1.5-1.5.67-1.5 1.5-1.5 1.5.67 1.5 1.5zm6 0c0 .83-.67 1.5-1.5 1.5s-1.5-.67-1.5-1.5.67-1.5 1.5-1.5 1.5.67 1.5 1.5zm6 0c0 .83-.67 1.5-1.5 1.5s-1.5-.67-1.5-1.5.67-1.5 1.5-1.5 1.5.67 1.5 1.5zm6 0c0 .83-.67 1.5-1.5 1.5s-1.5-.67-1.5-1.5.67-1.5 1.5-1.5 1.5.67 1.5 1.5zm6 0c0 .83-.67 1.5-1.5 1.5s-1.5-.67-1.5-1.5.67-1.5 1.5-1.5 1.5.67 1.5 1.5zm6 0c0 .83-.67 1.5-1.5 1.5s-1.5-.67-1.5-1.5.67-1.5 1.5-1.5 1.5.67 1.5 1.5zm6 0c0 .83-.67 1.5-1.5 1.5s-1.5-.67-1.5-1.5.67-1.5 1.5-1.5 1.5.67 1.5 1.5zm6 0c0 .83-.67 1.5-1.5 1.5s-1.5-.67-1.5-1.5.67-1.5 1.5-1.5 1.5.67 1.5 1.5zm6 0c0 .83-.67 1.5-1.5 1.5s-1.5-.67-1.5-1.5.67-1.5 1.5-1.5 1.5.67 1.5 1.5zm6 0c0 .83-.67 1.5-1.5 1.5s-1.5-.67-1.5-1.5.67-1.5 1.5-1.5 1.5.67 1.5 1.5zm6 0c0 .83-.67 1.5-1.5 1.5s-1.5-.67-1.5-1.5.67-1.5 1.5-1.5 1.5.67 1.5 1.5zm6 0c0 .83-.67 1.5-1.5 1.5s-1.5-.67-1.5-1.5.67-1.5 1.5-1.5 1.5.67 1.5 1.5zm4.1 1.9c0 .82-.67 1.5-1.5 1.5-.82 0-1.5-.68-1.5-1.5 0-.83.68-1.5 1.5-1.5.83 0 1.5.67 1.5 1.5zm1.9 4.1c0 .83-.67 1.5-1.5 1.5s-1.5-.67-1.5-1.5.67-1.5 1.5-1.5 1.5.67 1.5 1.5zm0 6.18c0 .83-.67 1.5-1.5 1.5s-1.5-.67-1.5-1.5.67-1.5 1.5-1.5 1.5.67 1.5 1.5zm0 6.18c0 .83-.67 1.5-1.5 1.5s-1.5-.67-1.5-1.5c0-.82.67-1.5 1.5-1.5s1.5.68 1.5 1.5zm0 6.2c0 .8-.67 1.5-1.5 1.5s-1.5-.7-1.5-1.5c0-.84.67-1.5 1.5-1.5s1.5.66 1.5 1.5zm0 6.17c0 .83-.67 1.5-1.5 1.5s-1.5-.67-1.5-1.5.67-1.5 1.5-1.5 1.5.67 1.5 1.5zm0 6.18c0 .84-.67 1.5-1.5 1.5s-1.5-.66-1.5-1.5c0-.82.67-1.5 1.5-1.5s1.5.68 1.5 1.5zm0 6.2c0 .82-.67 1.5-1.5 1.5s-1.5-.68-1.5-1.5c0-.84.67-1.5 1.5-1.5s1.5.66 1.5 1.5zm0 6.17c0 .83-.67 1.5-1.5 1.5s-1.5-.67-1.5-1.5.67-1.5 1.5-1.5 1.5.67 1.5 1.5zm0 6.18c0 .83-.67 1.5-1.5 1.5s-1.5-.67-1.5-1.5c0-.82.67-1.5 1.5-1.5s1.5.68 1.5 1.5zm0 6.2c0 .8-.67 1.5-1.5 1.5s-1.5-.7-1.5-1.5c0-.84.67-1.5 1.5-1.5s1.5.66 1.5 1.5zm0 6.17c0 .83-.67 1.5-1.5 1.5s-1.5-.67-1.5-1.5.67-1.5 1.5-1.5 1.5.67 1.5 1.5zm0 6.18c0 .83-.67 1.5-1.5 1.5s-1.5-.67-1.5-1.5.67-1.5 1.5-1.5 1.5.67 1.5 1.5zm-1.9 4.1c0 .83-.67 1.5-1.5 1.5-.82 0-1.5-.67-1.5-1.5 0-.82.68-1.5 1.5-1.5.83 0 1.5.68 1.5 1.5zm-4.1 1.9c0 .83-.67 1.5-1.5 1.5s-1.5-.67-1.5-1.5.67-1.5 1.5-1.5 1.5.67 1.5 1.5zm-6 0c0 .83-.67 1.5-1.5 1.5s-1.5-.67-1.5-1.5.67-1.5 1.5-1.5 1.5.67 1.5 1.5zm-6 0c0 .83-.67 1.5-1.5 1.5s-1.5-.67-1.5-1.5.67-1.5 1.5-1.5 1.5.67 1.5 1.5zm-6 0c0 .83-.67 1.5-1.5 1.5s-1.5-.67-1.5-1.5.67-1.5 1.5-1.5 1.5.67 1.5 1.5zm-6 0c0 .83-.67 1.5-1.5 1.5s-1.5-.67-1.5-1.5.67-1.5 1.5-1.5 1.5.67 1.5 1.5zm-6 0c0 .83-.67 1.5-1.5 1.5s-1.5-.67-1.5-1.5.67-1.5 1.5-1.5 1.5.67 1.5 1.5zm-6 0c0 .83-.67 1.5-1.5 1.5s-1.5-.67-1.5-1.5.67-1.5 1.5-1.5 1.5.67 1.5 1.5zm-6 0c0 .83-.67 1.5-1.5 1.5s-1.5-.67-1.5-1.5.67-1.5 1.5-1.5 1.5.67 1.5 1.5zm-6 0c0 .83-.67 1.5-1.5 1.5s-1.5-.67-1.5-1.5.67-1.5 1.5-1.5 1.5.67 1.5 1.5zm-6 0c0 .83-.67 1.5-1.5 1.5s-1.5-.67-1.5-1.5.67-1.5 1.5-1.5 1.5.67 1.5 1.5zm-6 0c0 .83-.67 1.5-1.5 1.5s-1.5-.67-1.5-1.5.67-1.5 1.5-1.5 1.5.67 1.5 1.5zm-6 0c0 .83-.67 1.5-1.5 1.5s-1.5-.67-1.5-1.5.67-1.5 1.5-1.5 1.5.67 1.5 1.5zm-6 0c0 .83-.67 1.5-1.5 1.5s-1.5-.67-1.5-1.5.67-1.5 1.5-1.5 1.5.67 1.5 1.5zm-6 0c0 .83-.67 1.5-1.5 1.5s-1.5-.67-1.5-1.5.67-1.5 1.5-1.5 1.5.67 1.5 1.5zm-6 0c0 .83-.67 1.5-1.5 1.5s-1.5-.67-1.5-1.5.67-1.5 1.5-1.5 1.5.67 1.5 1.5zm-6 0c0 .83-.67 1.5-1.5 1.5s-1.5-.67-1.5-1.5.67-1.5 1.5-1.5 1.5.67 1.5 1.5zm-6 0c0 .83-.67 1.5-1.5 1.5s-1.5-.67-1.5-1.5.67-1.5 1.5-1.5 1.5.67 1.5 1.5zm-6 0c0 .83-.67 1.5-1.5 1.5s-1.5-.67-1.5-1.5.67-1.5 1.5-1.5 1.5.67 1.5 1.5zm-6 0c0 .83-.67 1.5-1.5 1.5s-1.5-.67-1.5-1.5.67-1.5 1.5-1.5 1.5.67 1.5 1.5zm-6 0c0 .83-.67 1.5-1.5 1.5s-1.5-.67-1.5-1.5.67-1.5 1.5-1.5 1.5.67 1.5 1.5zm-6 0c0 .83-.67 1.5-1.5 1.5s-1.5-.67-1.5-1.5.67-1.5 1.5-1.5 1.5.67 1.5 1.5zm-6 0c0 .83-.67 1.5-1.5 1.5s-1.5-.67-1.5-1.5.67-1.5 1.5-1.5 1.5.67 1.5 1.5zm-6 0c0 .83-.67 1.5-1.5 1.5S.5 780.83.5 780s.67-1.5 1.5-1.5 1.5.67 1.5 1.5zm-6 0c0 .83-.67 1.5-1.5 1.5s-1.5-.67-1.5-1.5.67-1.5 1.5-1.5 1.5.67 1.5 1.5zm-6 0c0 .83-.67 1.5-1.5 1.5s-1.5-.67-1.5-1.5.67-1.5 1.5-1.5 1.5.67 1.5 1.5zm-6 0c0 .83-.67 1.5-1.5 1.5s-1.5-.67-1.5-1.5.67-1.5 1.5-1.5 1.5.67 1.5 1.5zm-6 0c0 .83-.67 1.5-1.5 1.5s-1.5-.67-1.5-1.5.67-1.5 1.5-1.5 1.5.67 1.5 1.5zm-6 0c0 .83-.67 1.5-1.5 1.5s-1.5-.67-1.5-1.5.67-1.5 1.5-1.5 1.5.67 1.5 1.5zm-6 0c0 .83-.67 1.5-1.5 1.5s-1.5-.67-1.5-1.5.67-1.5 1.5-1.5 1.5.67 1.5 1.5zm-4.1-1.9c0 .83-.68 1.5-1.5 1.5-.83 0-1.5-.67-1.5-1.5 0-.82.67-1.5 1.5-1.5.82 0 1.5.68 1.5 1.5zm-1.9-4.1c0 .83-.67 1.5-1.5 1.5s-1.5-.67-1.5-1.5.67-1.5 1.5-1.5 1.5.67 1.5 1.5zm0-6.18c0 .83-.67 1.5-1.5 1.5s-1.5-.67-1.5-1.5.67-1.5 1.5-1.5 1.5.67 1.5 1.5zm0-6.18c0 .82-.67 1.5-1.5 1.5s-1.5-.68-1.5-1.5c0-.83.67-1.5 1.5-1.5s1.5.67 1.5 1.5zm0-6.2c0 .84-.67 1.5-1.5 1.5s-1.5-.66-1.5-1.5c0-.8.67-1.5 1.5-1.5s1.5.7 1.5 1.5zm0-6.17c0 .83-.67 1.5-1.5 1.5s-1.5-.67-1.5-1.5.67-1.5 1.5-1.5 1.5.67 1.5 1.5zm0-6.18c0 .82-.67 1.5-1.5 1.5s-1.5-.68-1.5-1.5c0-.84.67-1.5 1.5-1.5s1.5.66 1.5 1.5zm0-6.2c0 .84-.67 1.5-1.5 1.5s-1.5-.66-1.5-1.5c0-.82.67-1.5 1.5-1.5s1.5.68 1.5 1.5zm0-6.17c0 .83-.67 1.5-1.5 1.5s-1.5-.67-1.5-1.5.67-1.5 1.5-1.5 1.5.67 1.5 1.5zm0-6.18c0 .82-.67 1.5-1.5 1.5s-1.5-.68-1.5-1.5c0-.83.67-1.5 1.5-1.5s1.5.67 1.5 1.5zm0-6.2c0 .84-.67 1.5-1.5 1.5s-1.5-.66-1.5-1.5c0-.8.67-1.5 1.5-1.5s1.5.7 1.5 1.5zm0-6.17c0 .83-.67 1.5-1.5 1.5s-1.5-.67-1.5-1.5.67-1.5 1.5-1.5 1.5.67 1.5 1.5zm0-6.18c0 .83-.67 1.5-1.5 1.5s-1.5-.67-1.5-1.5.67-1.5 1.5-1.5 1.5.67 1.5 1.5z" fill="#7ab648"/><g><use xlink:href="#I" transform="matrix(1,0,0,1,-35,705) translate(8.549999999999997 38.4625)"/><use xlink:href="#J" transform="matrix(1,0,0,1,-35,705) translate(86.5 38.4625)"/></g><path d="M680 706c0-3.3 2.7-6 6-6h188c3.3 0 6 2.7 6 6v68c0 3.3-2.7 6-6 6H686c-3.3 0-6-2.7-6-6z" stroke="#19967d" stroke-width="3" fill="#99d5ca"/><g><use xlink:href="#K" transform="matrix(1,0,0,1,685,705) translate(0.17499999999998295 38.4625)"/><use xlink:href="#u" transform="matrix(1,0,0,1,685,705) translate(87.07499999999999 38.4625)"/></g><path d="M142.5 740h10.83m10.84 0h21.66m10.84 0h21.66m10.83 0H240" stroke="#224c72" stroke-width="2" fill="none"/><path d="M142.53 741h-1.03v-2h1.03" fill="#224c72"/><path d="M255.26 740L241 744.64v-9.28z" stroke="#224c72" stroke-width="2" fill="#224c72"/><path d="M780 782.5V820" stroke="#224c72" stroke-width="2" fill="none"/><path d="M781 782.53h-2v-1.03h2" fill="#224c72"/><path d="M780 835.26L775.36 821h9.28z" stroke="#224c72" stroke-width="2" fill="#224c72"/><path d="M260 706c0-3.3 2.7-6 6-6h188c3.3 0 6 2.7 6 6v68c0 3.3-2.7 6-6 6H266c-3.3 0-6-2.7-6-6z" stroke="#19967d" stroke-width="3" fill="#99d5ca"/><g><use xlink:href="#L" transform="matrix(1,0,0,1,265,705) translate(3.6499999999999915 38.4625)"/><use xlink:href="#u" transform="matrix(1,0,0,1,265,705) translate(83.6 38.4625)"/></g><path d="M541.55 741H462.5v-2h79.05M660 741h-61.55v-2H660" fill="#224c72"/><path d="M462.53 741h-1.03v-2h1.03M675.26 740L661 744.64v-9.28z" fill="#224c72"/><path d="M678.5 740l-18.5 6v-12m2 9.26l10.03-3.26-10.03-3.26" fill="#224c72"/><g><use xlink:href="#s" transform="matrix(1,0,0,1,541.55,729.2) translate(0 14.4)"/></g><defs><path fill="#1d262b" d="M30 0v-248h187v28H63v79h144v27H63v87h162V0H30" id="M"/><path fill="#1d262b" d="M117-194c89-4 53 116 60 194h-32v-121c0-31-8-49-39-48C34-167 62-67 57 0H25l-1-190h30c1 10-1 24 2 32 11-22 29-35 61-36" id="N"/><path fill="#1d262b" d="M59-47c-2 24 18 29 38 22v24C64 9 27 4 27-40v-127H5v-23h24l9-43h21v43h35v23H59v120" id="O"/><path fill="#1d262b" d="M100-194c63 0 86 42 84 106H49c0 40 14 67 53 68 26 1 43-12 49-29l28 8c-11 28-37 45-77 45C44 4 14-33 15-96c1-61 26-98 85-98zm52 81c6-60-76-77-97-28-3 7-6 17-6 28h103" id="P"/><path fill="#1d262b" d="M114-163C36-179 61-72 57 0H25l-1-190h30c1 12-1 29 2 39 6-27 23-49 58-41v29" id="Q"/><path fill="#1d262b" d="M115-194c55 1 70 41 70 98S169 2 115 4C84 4 66-9 55-30l1 105H24l-1-265h31l2 30c10-21 28-34 59-34zm-8 174c40 0 45-34 45-75s-6-73-45-74c-42 0-51 32-51 76 0 43 10 73 51 73" id="R"/><path fill="#1d262b" d="M24-231v-30h32v30H24zM24 0v-190h32V0H24" id="S"/><path fill="#1d262b" d="M135-143c-3-34-86-38-87 0 15 53 115 12 119 90S17 21 10-45l28-5c4 36 97 45 98 0-10-56-113-15-118-90-4-57 82-63 122-42 12 7 21 19 24 35" id="T"/><g id="a"><use transform="matrix(0.05,0,0,0.05,0,0)" xlink:href="#M"/><use transform="matrix(0.05,0,0,0.05,12,0)" xlink:href="#N"/><use transform="matrix(0.05,0,0,0.05,22,0)" xlink:href="#O"/><use transform="matrix(0.05,0,0,0.05,27,0)" xlink:href="#P"/><use transform="matrix(0.05,0,0,0.05,37,0)" xlink:href="#Q"/><use transform="matrix(0.05,0,0,0.05,42.95,0)" xlink:href="#R"/><use transform="matrix(0.05,0,0,0.05,52.95,0)" xlink:href="#Q"/><use transform="matrix(0.05,0,0,0.05,58.900000000000006,0)" xlink:href="#S"/><use transform="matrix(0.05,0,0,0.05,62.85,0)" xlink:href="#T"/><use transform="matrix(0.05,0,0,0.05,71.85000000000001,0)" xlink:href="#P"/></g><path fill="#1d262b" d="M205 0l-28-72H64L36 0H1l101-248h38L239 0h-34zm-38-99l-47-123c-12 45-31 82-46 123h93" id="U"/><path fill="#1d262b" d="M96-169c-40 0-48 33-48 73s9 75 48 75c24 0 41-14 43-38l32 2c-6 37-31 61-74 61-59 0-76-41-82-99-10-93 101-131 147-64 4 7 5 14 7 22l-32 3c-4-21-16-35-41-35" id="V"/><path fill="#1d262b" d="M106-169C34-169 62-67 57 0H25v-261h32l-1 103c12-21 28-36 61-36 89 0 53 116 60 194h-32v-121c2-32-8-49-39-48" id="W"/><g id="b"><use transform="matrix(0.05,0,0,0.05,0,0)" xlink:href="#U"/><use transform="matrix(0.05,0,0,0.05,12,0)" xlink:href="#Q"/><use transform="matrix(0.05,0,0,0.05,17.95,0)" xlink:href="#V"/><use transform="matrix(0.05,0,0,0.05,26.950000000000003,0)" xlink:href="#W"/><use transform="matrix(0.05,0,0,0.05,36.95,0)" xlink:href="#S"/><use transform="matrix(0.05,0,0,0.05,40.900000000000006,0)" xlink:href="#O"/><use transform="matrix(0.05,0,0,0.05,45.900000000000006,0)" xlink:href="#P"/><use transform="matrix(0.05,0,0,0.05,55.900000000000006,0)" xlink:href="#V"/><use transform="matrix(0.05,0,0,0.05,64.9,0)" xlink:href="#O"/></g><path fill="#1d262b" d="M232-93c-1 65-40 97-104 97C67 4 28-28 28-90v-158h33c8 89-33 224 67 224 102 0 64-133 71-224h33v155" id="X"/><path fill="#1d262b" d="M240 0l2-218c-23 76-54 145-80 218h-23L58-218 59 0H30v-248h44l77 211c21-75 51-140 76-211h43V0h-30" id="Y"/><path fill="#1d262b" d="M30 0v-248h33v221h125V0H30" id="Z"/><g id="c"><use transform="matrix(0.05,0,0,0.05,0,0)" xlink:href="#X"/><use transform="matrix(0.05,0,0,0.05,12.950000000000001,0)" xlink:href="#Y"/><use transform="matrix(0.05,0,0,0.05,27.900000000000002,0)" xlink:href="#Z"/></g><path fill="#1d262b" d="M210-169c-67 3-38 105-44 169h-31v-121c0-29-5-50-35-48C34-165 62-65 56 0H25l-1-190h30c1 10-1 24 2 32 10-44 99-50 107 0 11-21 27-35 58-36 85-2 47 119 55 194h-31v-121c0-29-5-49-35-48" id="aa"/><path fill="#1d262b" d="M100-194c62-1 85 37 85 99 1 63-27 99-86 99S16-35 15-95c0-66 28-99 85-99zM99-20c44 1 53-31 53-75 0-43-8-75-51-75s-53 32-53 75 10 74 51 75" id="ab"/><path fill="#1d262b" d="M85-194c31 0 48 13 60 33l-1-100h32l1 261h-30c-2-10 0-23-3-31C134-8 116 4 85 4 32 4 16-35 15-94c0-66 23-100 70-100zm9 24c-40 0-46 34-46 75 0 40 6 74 45 74 42 0 51-32 51-76 0-42-9-74-50-73" id="ac"/><path fill="#1d262b" d="M24 0v-261h32V0H24" id="ad"/><g id="d"><use transform="matrix(0.05,0,0,0.05,0,0)" xlink:href="#aa"/><use transform="matrix(0.05,0,0,0.05,14.950000000000001,0)" xlink:href="#ab"/><use transform="matrix(0.05,0,0,0.05,24.950000000000003,0)" xlink:href="#ac"/><use transform="matrix(0.05,0,0,0.05,34.95,0)" xlink:href="#P"/><use transform="matrix(0.05,0,0,0.05,44.95,0)" xlink:href="#ad"/><use transform="matrix(0.05,0,0,0.05,48.900000000000006,0)" xlink:href="#T"/></g><g id="e"><use transform="matrix(0.05,0,0,0.05,0,0)" xlink:href="#Y"/><use transform="matrix(0.05,0,0,0.05,14.950000000000001,0)" xlink:href="#ab"/><use transform="matrix(0.05,0,0,0.05,24.950000000000003,0)" xlink:href="#ac"/><use transform="matrix(0.05,0,0,0.05,34.95,0)" xlink:href="#P"/><use transform="matrix(0.05,0,0,0.05,44.95,0)" xlink:href="#ad"/></g><path fill="#1d262b" d="M141-36C126-15 110 5 73 4 37 3 15-17 15-53c-1-64 63-63 125-63 3-35-9-54-41-54-24 1-41 7-42 31l-33-3c5-37 33-52 76-52 45 0 72 20 72 64v82c-1 20 7 32 28 27v20c-31 9-61-2-59-35zM48-53c0 20 12 33 32 33 41-3 63-29 60-74-43 2-92-5-92 41" id="ae"/><g id="f"><use transform="matrix(0.05,0,0,0.05,0,0)" xlink:href="#ae"/><use transform="matrix(0.05,0,0,0.05,10,0)" xlink:href="#N"/><use transform="matrix(0.05,0,0,0.05,20,0)" xlink:href="#N"/><use transform="matrix(0.05,0,0,0.05,30,0)" xlink:href="#ab"/><use transform="matrix(0.05,0,0,0.05,40,0)" xlink:href="#O"/><use transform="matrix(0.05,0,0,0.05,45,0)" xlink:href="#ae"/><use transform="matrix(0.05,0,0,0.05,55,0)" xlink:href="#O"/><use transform="matrix(0.05,0,0,0.05,60,0)" xlink:href="#S"/><use transform="matrix(0.05,0,0,0.05,63.95,0)" xlink:href="#ab"/><use transform="matrix(0.05,0,0,0.05,73.95,0)" xlink:href="#N"/><use transform="matrix(0.05,0,0,0.05,83.95,0)" xlink:href="#T"/></g><path fill="#1d262b" d="M233-177c-1 41-23 64-60 70L243 0h-38l-65-103H63V0H30v-248c88 3 205-21 203 71zM63-129c60-2 137 13 137-47 0-61-80-42-137-45v92" id="af"/><path fill="#1d262b" d="M145-31C134-9 116 4 85 4 32 4 16-35 15-94c0-59 17-99 70-100 32-1 48 14 60 33 0-11-1-24 2-32h30l-1 268h-32zM93-21c41 0 51-33 51-76s-8-73-50-73c-40 0-46 35-46 75s5 74 45 74" id="ag"/><path fill="#1d262b" d="M84 4C-5 8 30-112 23-190h32v120c0 31 7 50 39 49 72-2 45-101 50-169h31l1 190h-30c-1-10 1-25-2-33-11 22-28 36-60 37" id="ah"/><g id="g"><use transform="matrix(0.05,0,0,0.05,0,0)" xlink:href="#af"/><use transform="matrix(0.05,0,0,0.05,12.950000000000001,0)" xlink:href="#P"/><use transform="matrix(0.05,0,0,0.05,22.950000000000003,0)" xlink:href="#ag"/><use transform="matrix(0.05,0,0,0.05,32.95,0)" xlink:href="#ah"/><use transform="matrix(0.05,0,0,0.05,42.95,0)" xlink:href="#S"/><use transform="matrix(0.05,0,0,0.05,46.900000000000006,0)" xlink:href="#Q"/><use transform="matrix(0.05,0,0,0.05,52.85,0)" xlink:href="#P"/><use transform="matrix(0.05,0,0,0.05,62.85,0)" xlink:href="#aa"/><use transform="matrix(0.05,0,0,0.05,77.80000000000001,0)" xlink:href="#P"/><use transform="matrix(0.05,0,0,0.05,87.80000000000001,0)" xlink:href="#N"/><use transform="matrix(0.05,0,0,0.05,97.80000000000001,0)" xlink:href="#O"/><use transform="matrix(0.05,0,0,0.05,102.80000000000001,0)" xlink:href="#T"/></g><g id="h"><use transform="matrix(0.05,0,0,0.05,0,0)" xlink:href="#Z"/><use transform="matrix(0.05,0,0,0.05,10,0)" xlink:href="#ah"/><use transform="matrix(0.05,0,0,0.05,20,0)" xlink:href="#O"/><use transform="matrix(0.05,0,0,0.05,25,0)" xlink:href="#ae"/><use transform="matrix(0.05,0,0,0.05,35,0)" xlink:href="#Y"/><use transform="matrix(0.05,0,0,0.05,49.95,0)" xlink:href="#Z"/></g><path fill="#1d262b" d="M195 0l-74-108L45 0H8l94-129-87-119h37l69 98 67-98h37l-84 118L233 0h-38" id="ai"/><path fill="#1d262b" d="M33 0v-248h34V0H33" id="aj"/><g id="i"><use transform="matrix(0.05,0,0,0.05,0,0)" xlink:href="#ai"/><use transform="matrix(0.05,0,0,0.05,12,0)" xlink:href="#Y"/><use transform="matrix(0.05,0,0,0.05,26.950000000000003,0)" xlink:href="#aj"/></g><g id="j"><use transform="matrix(0.05,0,0,0.05,0,0)" xlink:href="#R"/><use transform="matrix(0.05,0,0,0.05,10,0)" xlink:href="#ae"/><use transform="matrix(0.05,0,0,0.05,20,0)" xlink:href="#Q"/><use transform="matrix(0.05,0,0,0.05,25.950000000000003,0)" xlink:href="#T"/><use transform="matrix(0.05,0,0,0.05,34.95,0)" xlink:href="#P"/><use transform="matrix(0.05,0,0,0.05,44.95,0)" xlink:href="#Q"/></g><g id="k"><use transform="matrix(0.05,0,0,0.05,0,0)" xlink:href="#ai"/><use transform="matrix(0.05,0,0,0.05,12,0)" xlink:href="#Y"/><use transform="matrix(0.05,0,0,0.05,26.950000000000003,0)" xlink:href="#aj"/></g><path fill="#1d262b" d="M63-220v92h138v28H63V0H30v-248h175v28H63" id="ak"/><path fill="#1d262b" d="M177-190C167-65 218 103 67 71c-23-6-38-20-44-43l32-5c15 47 100 32 89-28v-30C133-14 115 1 83 1 29 1 15-40 15-95c0-56 16-97 71-98 29-1 48 16 59 35 1-10 0-23 2-32h30zM94-22c36 0 50-32 50-73 0-42-14-75-50-75-39 0-46 34-46 75s6 73 46 73" id="al"/><g id="l"><use transform="matrix(0.05,0,0,0.05,0,0)" xlink:href="#ak"/><use transform="matrix(0.05,0,0,0.05,10.950000000000001,0)" xlink:href="#S"/><use transform="matrix(0.05,0,0,0.05,14.9,0)" xlink:href="#al"/><use transform="matrix(0.05,0,0,0.05,24.900000000000002,0)" xlink:href="#ah"/><use transform="matrix(0.05,0,0,0.05,34.900000000000006,0)" xlink:href="#Q"/><use transform="matrix(0.05,0,0,0.05,40.85000000000001,0)" xlink:href="#P"/><use transform="matrix(0.05,0,0,0.05,50.85000000000001,0)" xlink:href="#T"/></g><path fill="#1d262b" d="M87 75C49 33 22-17 22-94c0-76 28-126 65-167h31c-38 41-64 92-64 168S80 34 118 75H87" id="am"/><g id="m"><use transform="matrix(0.05,0,0,0.05,0,0)" xlink:href="#am"/><use transform="matrix(0.05,0,0,0.05,5.95,0)" xlink:href="#M"/><use transform="matrix(0.05,0,0,0.05,17.95,0)" xlink:href="#U"/></g><path fill="#1d262b" d="M33-261c38 41 65 92 65 168S71 34 33 75H2C39 34 66-17 66-93S39-220 2-261h31" id="an"/><g id="n"><use transform="matrix(0.05,0,0,0.05,0,0)" xlink:href="#M"/><use transform="matrix(0.05,0,0,0.05,12,0)" xlink:href="#Y"/><use transform="matrix(0.05,0,0,0.05,26.950000000000003,0)" xlink:href="#ak"/><use transform="matrix(0.05,0,0,0.05,37.900000000000006,0)" xlink:href="#an"/></g><path fill="#1d262b" d="M185-189c-5-48-123-54-124 2 14 75 158 14 163 119 3 78-121 87-175 55-17-10-28-26-33-46l33-7c5 56 141 63 141-1 0-78-155-14-162-118-5-82 145-84 179-34 5 7 8 16 11 25" id="ao"/><path fill="#1d262b" d="M137 0h-34L2-248h35l83 218 83-218h36" id="ap"/><path fill="#1d262b" d="M143 4C61 4 22-44 18-125c-5-107 100-154 193-111 17 8 29 25 37 43l-32 9c-13-25-37-40-76-40-61 0-88 39-88 99 0 61 29 100 91 101 35 0 62-11 79-27v-45h-74v-28h105v86C228-13 192 4 143 4" id="aq"/><path fill="#1d262b" d="M68-38c1 34 0 65-14 84H32c9-13 17-26 17-46H33v-38h35" id="ar"/><g id="o"><use transform="matrix(0.05,0,0,0.05,0,0)" xlink:href="#am"/><use transform="matrix(0.05,0,0,0.05,5.95,0)" xlink:href="#ao"/><use transform="matrix(0.05,0,0,0.05,17.95,0)" xlink:href="#ap"/><use transform="matrix(0.05,0,0,0.05,29.950000000000003,0)" xlink:href="#aq"/><use transform="matrix(0.05,0,0,0.05,43.95,0)" xlink:href="#ar"/></g><path fill="#1d262b" d="M141 0L90-78 38 0H4l68-98-65-92h35l48 74 47-74h35l-64 92 68 98h-35" id="as"/><g id="p"><use transform="matrix(0.05,0,0,0.05,0,0)" xlink:href="#P"/><use transform="matrix(0.05,0,0,0.05,10,0)" xlink:href="#as"/><use transform="matrix(0.05,0,0,0.05,19,0)" xlink:href="#R"/><use transform="matrix(0.05,0,0,0.05,29,0)" xlink:href="#ab"/><use transform="matrix(0.05,0,0,0.05,39,0)" xlink:href="#Q"/><use transform="matrix(0.05,0,0,0.05,44.95,0)" xlink:href="#O"/></g><g id="q"><use transform="matrix(0.05,0,0,0.05,0,0)" xlink:href="#Y"/><use transform="matrix(0.05,0,0,0.05,14.950000000000001,0)" xlink:href="#P"/><use transform="matrix(0.05,0,0,0.05,24.950000000000003,0)" xlink:href="#O"/><use transform="matrix(0.05,0,0,0.05,29.950000000000003,0)" xlink:href="#ae"/><use transform="matrix(0.05,0,0,0.05,39.95,0)" xlink:href="#N"/><use transform="matrix(0.05,0,0,0.05,49.95,0)" xlink:href="#ab"/><use transform="matrix(0.05,0,0,0.05,59.95,0)" xlink:href="#Q"/><use transform="matrix(0.05,0,0,0.05,65.9,0)" xlink:href="#aa"/><use transform="matrix(0.05,0,0,0.05,80.85000000000001,0)" xlink:href="#ae"/></g><path fill="#1d262b" d="M16-82v-28h88v28H16" id="at"/><path fill="#1d262b" d="M108 0H70L1-190h34L89-25l56-165h34" id="au"/><g id="r"><use transform="matrix(0.05,0,0,0.05,0,0)" xlink:href="#ae"/><use transform="matrix(0.05,0,0,0.05,10,0)" xlink:href="#ah"/><use transform="matrix(0.05,0,0,0.05,20,0)" xlink:href="#O"/><use transform="matrix(0.05,0,0,0.05,25,0)" xlink:href="#ab"/><use transform="matrix(0.05,0,0,0.05,35,0)" xlink:href="#at"/><use transform="matrix(0.05,0,0,0.05,40.95,0)" xlink:href="#V"/><use transform="matrix(0.05,0,0,0.05,49.95,0)" xlink:href="#ab"/><use transform="matrix(0.05,0,0,0.05,59.95,0)" xlink:href="#N"/><use transform="matrix(0.05,0,0,0.05,69.95,0)" xlink:href="#au"/><use transform="matrix(0.05,0,0,0.05,78.95,0)" xlink:href="#P"/><use transform="matrix(0.05,0,0,0.05,88.95,0)" xlink:href="#Q"/><use transform="matrix(0.05,0,0,0.05,94.9,0)" xlink:href="#O"/></g><g id="s"><use transform="matrix(0.05,0,0,0.05,0,0)" xlink:href="#S"/><use transform="matrix(0.05,0,0,0.05,3.95,0)" xlink:href="#N"/><use transform="matrix(0.05,0,0,0.05,13.949999999999998,0)" xlink:href="#V"/><use transform="matrix(0.05,0,0,0.05,22.95,0)" xlink:href="#ad"/><use transform="matrix(0.05,0,0,0.05,26.899999999999995,0)" xlink:href="#ah"/><use transform="matrix(0.05,0,0,0.05,36.9,0)" xlink:href="#ac"/><use transform="matrix(0.05,0,0,0.05,46.9,0)" xlink:href="#P"/></g><g id="t"><use transform="matrix(0.05,0,0,0.05,0,0)" xlink:href="#U"/><use transform="matrix(0.05,0,0,0.05,12,0)" xlink:href="#N"/><use transform="matrix(0.05,0,0,0.05,22,0)" xlink:href="#N"/><use transform="matrix(0.05,0,0,0.05,32,0)" xlink:href="#ab"/><use transform="matrix(0.05,0,0,0.05,42,0)" xlink:href="#O"/><use transform="matrix(0.05,0,0,0.05,47,0)" xlink:href="#ae"/><use transform="matrix(0.05,0,0,0.05,57,0)" xlink:href="#O"/><use transform="matrix(0.05,0,0,0.05,62,0)" xlink:href="#S"/><use transform="matrix(0.05,0,0,0.05,65.95,0)" xlink:href="#ab"/><use transform="matrix(0.05,0,0,0.05,75.95,0)" xlink:href="#N"/><use transform="matrix(0.05,0,0,0.05,85.95,0)" xlink:href="#T"/></g><g id="u"><use transform="matrix(0.05,0,0,0.05,0,0)" xlink:href="#am"/><use transform="matrix(0.05,0,0,0.05,5.95,0)" xlink:href="#Y"/><use transform="matrix(0.05,0,0,0.05,20.900000000000002,0)" xlink:href="#P"/><use transform="matrix(0.05,0,0,0.05,30.900000000000002,0)" xlink:href="#O"/><use transform="matrix(0.05,0,0,0.05,35.900000000000006,0)" xlink:href="#ae"/><use transform="matrix(0.05,0,0,0.05,45.900000000000006,0)" xlink:href="#N"/><use transform="matrix(0.05,0,0,0.05,55.900000000000006,0)" xlink:href="#ab"/><use transform="matrix(0.05,0,0,0.05,65.9,0)" xlink:href="#Q"/><use transform="matrix(0.05,0,0,0.05,71.85000000000001,0)" xlink:href="#aa"/><use transform="matrix(0.05,0,0,0.05,86.80000000000001,0)" xlink:href="#ae"/><use transform="matrix(0.05,0,0,0.05,96.80000000000001,0)" xlink:href="#an"/></g><g id="v"><use transform="matrix(0.05,0,0,0.05,0,0)" xlink:href="#ae"/><use transform="matrix(0.05,0,0,0.05,10,0)" xlink:href="#N"/><use transform="matrix(0.05,0,0,0.05,20,0)" xlink:href="#N"/><use transform="matrix(0.05,0,0,0.05,30,0)" xlink:href="#ab"/><use transform="matrix(0.05,0,0,0.05,40,0)" xlink:href="#O"/><use transform="matrix(0.05,0,0,0.05,45,0)" xlink:href="#ae"/><use transform="matrix(0.05,0,0,0.05,55,0)" xlink:href="#O"/><use transform="matrix(0.05,0,0,0.05,60,0)" xlink:href="#P"/><use transform="matrix(0.05,0,0,0.05,70,0)" xlink:href="#T"/></g><g id="w"><use transform="matrix(0.05,0,0,0.05,0,0)" xlink:href="#Y"/><use transform="matrix(0.05,0,0,0.05,14.950000000000001,0)" xlink:href="#ab"/><use transform="matrix(0.05,0,0,0.05,24.950000000000003,0)" xlink:href="#ac"/><use transform="matrix(0.05,0,0,0.05,34.95,0)" xlink:href="#ao"/><use transform="matrix(0.05,0,0,0.05,46.95,0)" xlink:href="#R"/><use transform="matrix(0.05,0,0,0.05,56.95,0)" xlink:href="#P"/><use transform="matrix(0.05,0,0,0.05,66.95,0)" xlink:href="#V"/></g><path fill="#1d262b" d="M140-251c81 0 123 46 123 126C263-46 219 4 140 4 59 4 17-45 17-125s42-126 123-126zm0 227c63 0 89-41 89-101s-29-99-89-99c-61 0-89 39-89 99S79-25 140-24" id="av"/><path fill="#1d262b" d="M212-179c-10-28-35-45-73-45-59 0-87 40-87 99 0 60 29 101 89 101 43 0 62-24 78-52l27 14C228-24 195 4 139 4 59 4 22-46 18-125c-6-104 99-153 187-111 19 9 31 26 39 46" id="aw"/><g id="x"><use transform="matrix(0.05,0,0,0.05,0,0)" xlink:href="#av"/><use transform="matrix(0.05,0,0,0.05,14,0)" xlink:href="#aq"/><use transform="matrix(0.05,0,0,0.05,28,0)" xlink:href="#aw"/></g><path fill="#1d262b" d="M115-194c53 0 69 39 70 98 0 66-23 100-70 100C84 3 66-7 56-30L54 0H23l1-261h32v101c10-23 28-34 59-34zm-8 174c40 0 45-34 45-75 0-40-5-75-45-74-42 0-51 32-51 76 0 43 10 73 51 73" id="ax"/><g id="y"><use transform="matrix(0.05,0,0,0.05,0,0)" xlink:href="#R"/><use transform="matrix(0.05,0,0,0.05,10,0)" xlink:href="#ah"/><use transform="matrix(0.05,0,0,0.05,20,0)" xlink:href="#ax"/><use transform="matrix(0.05,0,0,0.05,30,0)" xlink:href="#ad"/><use transform="matrix(0.05,0,0,0.05,33.95,0)" xlink:href="#S"/><use transform="matrix(0.05,0,0,0.05,37.900000000000006,0)" xlink:href="#V"/><use transform="matrix(0.05,0,0,0.05,46.900000000000006,0)" xlink:href="#ae"/><use transform="matrix(0.05,0,0,0.05,56.900000000000006,0)" xlink:href="#O"/><use transform="matrix(0.05,0,0,0.05,61.900000000000006,0)" xlink:href="#S"/><use transform="matrix(0.05,0,0,0.05,65.85000000000001,0)" xlink:href="#ab"/><use transform="matrix(0.05,0,0,0.05,75.85000000000001,0)" xlink:href="#N"/></g><path fill="#1d262b" d="M101-234c-31-9-42 10-38 44h38v23H63V0H32v-167H5v-23h27c-7-52 17-82 69-68v24" id="ay"/><g id="z"><use transform="matrix(0.05,0,0,0.05,0,0)" xlink:href="#ay"/><use transform="matrix(0.05,0,0,0.05,5,0)" xlink:href="#ab"/><use transform="matrix(0.05,0,0,0.05,15,0)" xlink:href="#Q"/><use transform="matrix(0.05,0,0,0.05,20.95,0)" xlink:href="#aa"/><use transform="matrix(0.05,0,0,0.05,35.9,0)" xlink:href="#ae"/><use transform="matrix(0.05,0,0,0.05,45.9,0)" xlink:href="#O"/><use transform="matrix(0.05,0,0,0.05,50.9,0)" xlink:href="#T"/></g><g id="A"><use transform="matrix(0.05,0,0,0.05,0,0)" xlink:href="#P"/><use transform="matrix(0.05,0,0,0.05,10,0)" xlink:href="#as"/><use transform="matrix(0.05,0,0,0.05,19,0)" xlink:href="#P"/><use transform="matrix(0.05,0,0,0.05,29,0)" xlink:href="#V"/><use transform="matrix(0.05,0,0,0.05,38,0)" xlink:href="#ah"/><use transform="matrix(0.05,0,0,0.05,48,0)" xlink:href="#O"/><use transform="matrix(0.05,0,0,0.05,53,0)" xlink:href="#P"/></g><path fill="#1d262b" d="M30-248c118-7 216 8 213 122C240-48 200 0 122 0H30v-248zM63-27c89 8 146-16 146-99s-60-101-146-95v194" id="az"/><g id="B"><use transform="matrix(0.05,0,0,0.05,0,0)" xlink:href="#az"/><use transform="matrix(0.05,0,0,0.05,12.950000000000001,0)" xlink:href="#ae"/><use transform="matrix(0.05,0,0,0.05,22.950000000000003,0)" xlink:href="#O"/><use transform="matrix(0.05,0,0,0.05,27.950000000000003,0)" xlink:href="#ae"/></g><path fill="#1d262b" d="M206 0h-36l-40-164L89 0H53L-1-190h32L70-26l43-164h34l41 164 42-164h31" id="aA"/><g id="C"><use transform="matrix(0.05,0,0,0.05,0,0)" xlink:href="#ao"/><use transform="matrix(0.05,0,0,0.05,12,0)" xlink:href="#ab"/><use transform="matrix(0.05,0,0,0.05,22,0)" xlink:href="#ay"/><use transform="matrix(0.05,0,0,0.05,27,0)" xlink:href="#O"/><use transform="matrix(0.05,0,0,0.05,32,0)" xlink:href="#aA"/><use transform="matrix(0.05,0,0,0.05,44.95,0)" xlink:href="#ae"/><use transform="matrix(0.05,0,0,0.05,54.95,0)" xlink:href="#Q"/><use transform="matrix(0.05,0,0,0.05,60.900000000000006,0)" xlink:href="#P"/></g><g id="D"><use transform="matrix(0.05,0,0,0.05,0,0)" xlink:href="#aa"/><use transform="matrix(0.05,0,0,0.05,14.950000000000001,0)" xlink:href="#ae"/><use transform="matrix(0.05,0,0,0.05,24.950000000000003,0)" xlink:href="#N"/><use transform="matrix(0.05,0,0,0.05,34.95,0)" xlink:href="#ah"/><use transform="matrix(0.05,0,0,0.05,44.95,0)" xlink:href="#ae"/><use transform="matrix(0.05,0,0,0.05,54.95,0)" xlink:href="#ad"/></g><g id="E"><use transform="matrix(0.05,0,0,0.05,0,0)" xlink:href="#T"/><use transform="matrix(0.05,0,0,0.05,9,0)" xlink:href="#O"/><use transform="matrix(0.05,0,0,0.05,14,0)" xlink:href="#P"/><use transform="matrix(0.05,0,0,0.05,24,0)" xlink:href="#R"/></g><g id="F"><use transform="matrix(0.05,0,0,0.05,0,0)" xlink:href="#ae"/><use transform="matrix(0.05,0,0,0.05,10,0)" xlink:href="#ah"/><use transform="matrix(0.05,0,0,0.05,20,0)" xlink:href="#O"/><use transform="matrix(0.05,0,0,0.05,25,0)" xlink:href="#ab"/><use transform="matrix(0.05,0,0,0.05,35,0)" xlink:href="#aa"/><use transform="matrix(0.05,0,0,0.05,49.95,0)" xlink:href="#ae"/><use transform="matrix(0.05,0,0,0.05,59.95,0)" xlink:href="#O"/><use transform="matrix(0.05,0,0,0.05,64.95,0)" xlink:href="#S"/><use transform="matrix(0.05,0,0,0.05,68.9,0)" xlink:href="#V"/></g><g id="G"><use transform="matrix(0.05,0,0,0.05,0,0)" xlink:href="#aj"/><use transform="matrix(0.05,0,0,0.05,5,0)" xlink:href="#N"/><use transform="matrix(0.05,0,0,0.05,15,0)" xlink:href="#R"/><use transform="matrix(0.05,0,0,0.05,25,0)" xlink:href="#ah"/><use transform="matrix(0.05,0,0,0.05,35,0)" xlink:href="#O"/></g><g id="H"><use transform="matrix(0.05,0,0,0.05,0,0)" xlink:href="#ac"/><use transform="matrix(0.05,0,0,0.05,10,0)" xlink:href="#ae"/><use transform="matrix(0.05,0,0,0.05,20,0)" xlink:href="#O"/><use transform="matrix(0.05,0,0,0.05,25,0)" xlink:href="#ae"/></g><g id="I"><use transform="matrix(0.05,0,0,0.05,0,0)" xlink:href="#ao"/><use transform="matrix(0.05,0,0,0.05,12,0)" xlink:href="#O"/><use transform="matrix(0.05,0,0,0.05,17,0)" xlink:href="#ae"/><use transform="matrix(0.05,0,0,0.05,27,0)" xlink:href="#N"/><use transform="matrix(0.05,0,0,0.05,37,0)" xlink:href="#ac"/><use transform="matrix(0.05,0,0,0.05,47,0)" xlink:href="#ae"/><use transform="matrix(0.05,0,0,0.05,57,0)" xlink:href="#Q"/><use transform="matrix(0.05,0,0,0.05,62.95,0)" xlink:href="#ac"/></g><g id="J"><use transform="matrix(0.05,0,0,0.05,0,0)" xlink:href="#aa"/><use transform="matrix(0.05,0,0,0.05,14.950000000000001,0)" xlink:href="#P"/><use transform="matrix(0.05,0,0,0.05,24.950000000000003,0)" xlink:href="#O"/><use transform="matrix(0.05,0,0,0.05,29.950000000000003,0)" xlink:href="#ae"/><use transform="matrix(0.05,0,0,0.05,39.95,0)" xlink:href="#ac"/><use transform="matrix(0.05,0,0,0.05,49.95,0)" xlink:href="#ae"/><use transform="matrix(0.05,0,0,0.05,59.95,0)" xlink:href="#O"/><use transform="matrix(0.05,0,0,0.05,64.95,0)" xlink:href="#ae"/></g><g id="K"><use transform="matrix(0.05,0,0,0.05,0,0)" xlink:href="#az"/><use transform="matrix(0.05,0,0,0.05,12.950000000000001,0)" xlink:href="#ab"/><use transform="matrix(0.05,0,0,0.05,22.950000000000003,0)" xlink:href="#V"/><use transform="matrix(0.05,0,0,0.05,31.950000000000003,0)" xlink:href="#ah"/><use transform="matrix(0.05,0,0,0.05,41.95,0)" xlink:href="#aa"/><use transform="matrix(0.05,0,0,0.05,56.900000000000006,0)" xlink:href="#P"/><use transform="matrix(0.05,0,0,0.05,66.9,0)" xlink:href="#N"/><use transform="matrix(0.05,0,0,0.05,76.9,0)" xlink:href="#O"/></g><g id="L"><use transform="matrix(0.05,0,0,0.05,0,0)" xlink:href="#Y"/><use transform="matrix(0.05,0,0,0.05,14.950000000000001,0)" xlink:href="#P"/><use transform="matrix(0.05,0,0,0.05,24.950000000000003,0)" xlink:href="#O"/><use transform="matrix(0.05,0,0,0.05,29.950000000000003,0)" xlink:href="#ae"/><use transform="matrix(0.05,0,0,0.05,39.95,0)" xlink:href="#ac"/><use transform="matrix(0.05,0,0,0.05,49.95,0)" xlink:href="#ae"/><use transform="matrix(0.05,0,0,0.05,59.95,0)" xlink:href="#O"/><use transform="matrix(0.05,0,0,0.05,64.95,0)" xlink:href="#ae"/></g></defs></g></svg>